<svg width="316" height="180" viewBox="0 0 316 180" fill="none" xmlns="http://www.w3.org/2000/svg">
<path d="M0 12C0 5.37258 5.37258 0 12 0H303.667C310.294 0 315.667 5.37258 315.667 12V180H0V12Z" fill="url(#paint0_linear_47_1170)"/>
<g opacity="0.75">
<g opacity="0.85">
<g filter="url(#filter0_d_47_1170)">
<rect x="92.3181" y="40.752" width="104.773" height="57.9993" rx="0.982105" fill="#5441DA"/>
</g>
<path fill-rule="evenodd" clip-rule="evenodd" d="M92.5092 50.8084V45.147L90.2327 47.9775L92.5092 50.8084Z" fill="#5441DA"/>
<rect x="100.426" y="48.2362" width="33.677" height="7.48378" rx="3.74189" fill="#B2ACDA"/>
<rect x="100.426" y="60.709" width="88.5581" height="4.98919" rx="2.49459" fill="#B2ACDA"/>
<rect x="100.426" y="69.4403" width="88.5581" height="4.98919" rx="2.49459" fill="#B2ACDA"/>
</g>
<path fill-rule="evenodd" clip-rule="evenodd" d="M190.174 47.4571L188.736 48.8954C188.672 48.96 188.673 49.0624 188.737 49.1263L188.983 49.3729C189.048 49.4375 189.151 49.4371 189.214 49.3734L190.652 47.9351L192.091 49.3734C192.155 49.438 192.258 49.4368 192.322 49.3729L192.568 49.1263C192.633 49.0618 192.632 48.9591 192.569 48.8954L191.13 47.4571L192.569 46.0188C192.633 45.9543 192.632 45.8518 192.568 45.7879L192.322 45.5413C192.257 45.4768 192.154 45.4772 192.091 45.5408L190.652 46.9791L189.214 45.5408C189.15 45.4763 189.047 45.4774 188.983 45.5413L188.737 45.7879C188.672 45.8525 188.673 45.9552 188.736 46.0188L190.174 47.4571Z" fill="#86959E"/>
<mask id="mask0_47_1170" style="mask-type:luminance" maskUnits="userSpaceOnUse" x="188" y="45" width="5" height="5">
<path fill-rule="evenodd" clip-rule="evenodd" d="M190.174 47.4571L188.736 48.8954C188.672 48.96 188.673 49.0624 188.737 49.1263L188.983 49.3729C189.048 49.4375 189.151 49.4371 189.214 49.3734L190.652 47.9351L192.091 49.3734C192.155 49.438 192.258 49.4368 192.322 49.3729L192.568 49.1263C192.633 49.0618 192.632 48.9591 192.569 48.8954L191.13 47.4571L192.569 46.0188C192.633 45.9543 192.632 45.8518 192.568 45.7879L192.322 45.5413C192.257 45.4768 192.154 45.4772 192.091 45.5408L190.652 46.9791L189.214 45.5408C189.15 45.4763 189.047 45.4774 188.983 45.5413L188.737 45.7879C188.672 45.8525 188.673 45.9552 188.736 46.0188L190.174 47.4571Z" fill="white"/>
</mask>
<g mask="url(#mask0_47_1170)">
<rect x="186.724" y="43.527" width="7.85684" height="7.81172" fill="white"/>
</g>
<rect x="145.804" y="76.435" width="20.2968" height="9.82106" rx="4.91053" stroke="white" stroke-width="0.654737"/>
<path d="M152.409 81.642H151.572L151.568 81.181H152.27C152.394 81.181 152.496 81.1654 152.575 81.134C152.654 81.1012 152.713 81.0542 152.752 80.993C152.792 80.9304 152.812 80.8543 152.812 80.7648C152.812 80.6633 152.793 80.5813 152.754 80.5186C152.717 80.456 152.658 80.4104 152.577 80.3821C152.498 80.3538 152.396 80.3396 152.27 80.3396H151.805V83.072H151.134V79.8137H152.27C152.46 79.8137 152.629 79.8316 152.778 79.8674C152.929 79.9032 153.057 79.9577 153.161 80.0308C153.266 80.1039 153.345 80.1964 153.401 80.3083C153.456 80.4187 153.483 80.5499 153.483 80.7021C153.483 80.8364 153.453 80.9602 153.392 81.0736C153.332 81.187 153.237 81.2795 153.107 81.3511C152.979 81.4227 152.811 81.4622 152.604 81.4697L152.409 81.642ZM152.38 83.072H151.389L151.651 82.5484H152.38C152.498 82.5484 152.594 82.5297 152.669 82.4924C152.743 82.4536 152.799 82.4014 152.834 82.3358C152.87 82.2701 152.888 82.1948 152.888 82.1097C152.888 82.0143 152.872 81.9315 152.839 81.8613C152.808 81.7912 152.757 81.7375 152.687 81.7002C152.617 81.6614 152.524 81.642 152.409 81.642H151.762L151.767 81.181H152.573L152.727 81.3623C152.925 81.3593 153.085 81.3944 153.206 81.4675C153.328 81.5391 153.417 81.6323 153.472 81.7472C153.529 81.8621 153.557 81.9852 153.557 82.1165C153.557 82.3253 153.512 82.5014 153.421 82.6446C153.33 82.7863 153.196 82.893 153.02 82.9646C152.846 83.0362 152.632 83.072 152.38 83.072ZM155.327 82.526V81.4473C155.327 81.3697 155.315 81.3034 155.289 81.2482C155.264 81.1915 155.224 81.1475 155.171 81.1161C155.119 81.0848 155.051 81.0691 154.967 81.0691C154.895 81.0691 154.834 81.0818 154.781 81.1072C154.729 81.131 154.689 81.1661 154.661 81.2124C154.632 81.2571 154.618 81.3101 154.618 81.3712H153.973C153.973 81.2683 153.997 81.1706 154.045 81.0781C154.093 80.9856 154.162 80.9043 154.253 80.8342C154.344 80.7625 154.452 80.7066 154.578 80.6663C154.705 80.626 154.846 80.6059 155.003 80.6059C155.191 80.6059 155.358 80.6372 155.504 80.6999C155.65 80.7625 155.765 80.8565 155.849 80.9819C155.934 81.1072 155.976 81.2638 155.976 81.4518V82.4879C155.976 82.6207 155.985 82.7296 156.001 82.8147C156.017 82.8982 156.041 82.9713 156.073 83.034V83.072H155.421C155.39 83.0064 155.366 82.9243 155.35 82.8259C155.335 82.7259 155.327 82.6259 155.327 82.526ZM155.412 81.5973L155.417 81.962H155.057C154.972 81.962 154.898 81.9717 154.835 81.9911C154.772 82.0105 154.721 82.0381 154.681 82.0739C154.64 82.1082 154.611 82.1485 154.591 82.1948C154.573 82.241 154.564 82.2918 154.564 82.347C154.564 82.4022 154.577 82.4521 154.602 82.4969C154.628 82.5402 154.664 82.5745 154.712 82.5998C154.76 82.6237 154.816 82.6356 154.88 82.6356C154.977 82.6356 155.061 82.6162 155.133 82.5775C155.204 82.5387 155.26 82.4909 155.298 82.4342C155.339 82.3775 155.359 82.3238 155.361 82.2731L155.531 82.5461C155.507 82.6073 155.474 82.6707 155.433 82.7363C155.392 82.802 155.341 82.8639 155.278 82.9221C155.216 82.9788 155.14 83.0258 155.052 83.0631C154.964 83.0989 154.86 83.1168 154.739 83.1168C154.585 83.1168 154.446 83.0862 154.32 83.025C154.197 82.9624 154.098 82.8766 154.025 82.7677C153.953 82.6573 153.918 82.5319 153.918 82.3917C153.918 82.2649 153.941 82.1523 153.989 82.0538C154.037 81.9553 154.107 81.8725 154.2 81.8054C154.294 81.7368 154.411 81.6853 154.551 81.651C154.691 81.6152 154.854 81.5973 155.039 81.5973H155.412ZM157.474 82.6133C157.553 82.6133 157.623 82.5983 157.684 82.5685C157.745 82.5372 157.793 82.4939 157.827 82.4387C157.863 82.382 157.882 82.3156 157.883 82.2395H158.49C158.488 82.4096 158.443 82.561 158.353 82.6938C158.263 82.8251 158.143 82.9288 157.993 83.0049C157.842 83.0795 157.673 83.1168 157.487 83.1168C157.299 83.1168 157.135 83.0854 156.995 83.0228C156.856 82.9601 156.74 82.8736 156.648 82.7632C156.555 82.6513 156.486 82.5215 156.44 82.3738C156.393 82.2246 156.37 82.065 156.37 81.8949V81.83C156.37 81.6584 156.393 81.4988 156.44 81.3511C156.486 81.2019 156.555 81.0721 156.648 80.9617C156.74 80.8498 156.856 80.7625 156.995 80.6999C157.133 80.6372 157.296 80.6059 157.482 80.6059C157.681 80.6059 157.855 80.6439 158.004 80.72C158.155 80.7961 158.272 80.905 158.357 81.0467C158.444 81.187 158.488 81.3533 158.49 81.5458H157.883C157.882 81.4652 157.864 81.3921 157.832 81.3265C157.8 81.2608 157.754 81.2086 157.693 81.1698C157.633 81.1296 157.559 81.1094 157.471 81.1094C157.377 81.1094 157.3 81.1296 157.241 81.1698C157.181 81.2086 157.135 81.2623 157.102 81.331C157.069 81.3981 157.046 81.4749 157.033 81.5615C157.021 81.6465 157.015 81.736 157.015 81.83V81.8949C157.015 81.9889 157.021 82.0792 157.033 82.1657C157.045 82.2522 157.067 82.329 157.1 82.3962C157.134 82.4633 157.181 82.5163 157.241 82.5551C157.3 82.5939 157.378 82.6133 157.474 82.6133ZM159.508 79.6324V83.072H158.863V79.6324H159.508ZM161.034 80.6506L159.982 81.8501L159.418 82.4208L159.183 81.9553L159.631 81.3869L160.26 80.6506H161.034ZM160.365 83.072L159.649 81.9531L160.094 81.5637L161.108 83.072H160.365Z" fill="white"/>
<rect x="169.047" y="76.1077" width="20.2968" height="10.4758" rx="5.2379" fill="white" fill-opacity="0.4"/>
<path d="M177.34 79.8137V83.072H176.669L175.36 80.8879V83.072H174.688V79.8137H175.36L176.671 82.0001V79.8137H177.34ZM178.999 83.1168C178.811 83.1168 178.642 83.0869 178.493 83.0273C178.344 82.9661 178.217 82.8818 178.112 82.7744C178.009 82.667 177.93 82.5424 177.875 82.4007C177.82 82.2574 177.792 82.1053 177.792 81.9441V81.8546C177.792 81.6711 177.818 81.5033 177.871 81.3511C177.923 81.1989 177.997 81.0669 178.094 80.955C178.193 80.8431 178.312 80.7573 178.452 80.6976C178.593 80.6365 178.751 80.6059 178.927 80.6059C179.098 80.6059 179.251 80.6342 179.383 80.6909C179.516 80.7476 179.627 80.8282 179.717 80.9326C179.808 81.0371 179.876 81.1624 179.923 81.3086C179.969 81.4533 179.992 81.6144 179.992 81.792V82.0605H178.068V81.6308H179.359V81.5816C179.359 81.4921 179.342 81.4123 179.31 81.3421C179.278 81.2705 179.23 81.2138 179.166 81.1721C179.102 81.1303 179.02 81.1094 178.92 81.1094C178.835 81.1094 178.762 81.1281 178.701 81.1654C178.64 81.2027 178.59 81.2549 178.551 81.322C178.514 81.3891 178.485 81.4682 178.466 81.5592C178.448 81.6487 178.439 81.7472 178.439 81.8546V81.9441C178.439 82.0411 178.452 82.1306 178.479 82.2127C178.508 82.2947 178.547 82.3656 178.598 82.4253C178.65 82.485 178.713 82.5312 178.786 82.564C178.861 82.5968 178.945 82.6133 179.039 82.6133C179.155 82.6133 179.263 82.5909 179.363 82.5461C179.465 82.4999 179.552 82.4305 179.625 82.338L179.938 82.6782C179.888 82.7513 179.818 82.8214 179.73 82.8885C179.644 82.9557 179.539 83.0109 179.417 83.0541C179.295 83.0959 179.155 83.1168 178.999 83.1168ZM180.878 80.6506L181.279 81.3869L181.691 80.6506H182.378L181.693 81.8345L182.409 83.072H181.72L181.283 82.2932L180.847 83.072H180.158L180.874 81.8345L180.189 80.6506H180.878ZM183.877 80.6506V81.1072H182.467V80.6506H183.877ZM182.816 80.0531H183.461V82.3425C183.461 82.4126 183.47 82.4663 183.488 82.5036C183.507 82.5409 183.535 82.567 183.573 82.5819C183.61 82.5954 183.657 82.6021 183.714 82.6021C183.754 82.6021 183.79 82.6006 183.821 82.5976C183.854 82.5931 183.882 82.5886 183.904 82.5842L183.906 83.0586C183.851 83.0765 183.791 83.0907 183.727 83.1011C183.663 83.1116 183.592 83.1168 183.515 83.1168C183.373 83.1168 183.249 83.0937 183.143 83.0474C183.039 82.9997 182.958 82.9236 182.901 82.8191C182.845 82.7147 182.816 82.5775 182.816 82.4074V80.0531Z" fill="#0553A2"/>
</g>
<g filter="url(#filter1_d_47_1170)">
<g filter="url(#filter2_d_47_1170)">
<rect x="137.221" y="72.5586" width="104.773" height="57.3757" rx="0.982105" fill="#5441DA"/>
</g>
<rect x="143.458" y="78.7949" width="33.677" height="7.48378" rx="3.74189" fill="#B2ACDA"/>
<rect x="143.458" y="91.2677" width="88.5581" height="4.98919" rx="2.49459" fill="#B2ACDA"/>
<rect x="143.458" y="99.999" width="88.5581" height="4.98919" rx="2.49459" fill="#B2ACDA"/>
</g>
<path fill-rule="evenodd" clip-rule="evenodd" d="M235.187 79.4527L233.748 80.891C233.684 80.9556 233.685 81.058 233.749 81.122L233.995 81.3685C234.06 81.4331 234.163 81.4327 234.226 81.369L235.665 79.9307L237.103 81.369C237.167 81.4336 237.27 81.4324 237.334 81.3685L237.58 81.122C237.645 81.0574 237.645 80.9547 237.581 80.891L236.143 79.4527L237.581 78.0145C237.645 77.9499 237.644 77.8474 237.58 77.7835L237.334 77.5369C237.269 77.4724 237.167 77.4728 237.103 77.5364L235.665 78.9747L234.226 77.5364C234.162 77.4719 234.059 77.473 233.995 77.5369L233.749 77.7835C233.684 77.8481 233.685 77.9508 233.748 78.0145L235.187 79.4527Z" fill="#86959E"/>
<mask id="mask1_47_1170" style="mask-type:luminance" maskUnits="userSpaceOnUse" x="233" y="77" width="5" height="5">
<path fill-rule="evenodd" clip-rule="evenodd" d="M235.187 79.4527L233.748 80.891C233.684 80.9556 233.685 81.058 233.749 81.122L233.995 81.3685C234.06 81.4331 234.163 81.4327 234.226 81.369L235.665 79.9307L237.103 81.369C237.167 81.4336 237.27 81.4324 237.334 81.3685L237.58 81.122C237.645 81.0574 237.645 80.9547 237.581 80.891L236.143 79.4527L237.581 78.0145C237.645 77.9499 237.644 77.8474 237.58 77.7835L237.334 77.5369C237.269 77.4724 237.167 77.4728 237.103 77.5364L235.665 78.9747L234.226 77.5364C234.162 77.4719 234.059 77.473 233.995 77.5369L233.749 77.7835C233.684 77.8481 233.685 77.9508 233.748 78.0145L235.187 79.4527Z" fill="white"/>
</mask>
<g mask="url(#mask1_47_1170)">
<rect x="231.736" y="75.5226" width="7.85684" height="7.81172" fill="white"/>
</g>
<rect x="190.816" y="112.799" width="20.2968" height="9.82106" rx="4.91053" stroke="#B2ACDA" stroke-width="0.654737"/>
<rect x="214.059" y="112.472" width="20.2968" height="10.4758" rx="5.2379" fill="#B2ACDA"/>
<g filter="url(#filter3_d_47_1170)">
<rect x="73.4543" y="108.668" width="105.879" height="44.5806" rx="1.14309" fill="white"/>
<rect x="73.2638" y="108.477" width="106.26" height="44.9616" rx="1.33361" stroke="#B9C0C7" stroke-width="0.38103"/>
</g>
<path fill-rule="evenodd" clip-rule="evenodd" d="M171.186 116.288L169.512 117.962C169.437 118.037 169.438 118.157 169.513 118.231L169.8 118.518C169.875 118.593 169.994 118.593 170.068 118.519L171.742 116.845L173.417 118.519C173.492 118.594 173.611 118.592 173.685 118.518L173.972 118.231C174.047 118.156 174.047 118.036 173.973 117.962L172.299 116.288L173.973 114.614C174.048 114.539 174.047 114.42 173.972 114.345L173.685 114.058C173.61 113.983 173.491 113.984 173.417 114.058L171.742 115.732L170.068 114.058C169.993 113.983 169.874 113.984 169.8 114.058L169.513 114.345C169.438 114.421 169.438 114.54 169.512 114.614L171.186 116.288Z" fill="#86959E"/>
<mask id="mask2_47_1170" style="mask-type:luminance" maskUnits="userSpaceOnUse" x="169" y="114" width="6" height="5">
<path fill-rule="evenodd" clip-rule="evenodd" d="M171.186 116.288L169.512 117.962C169.437 118.037 169.438 118.157 169.513 118.231L169.8 118.518C169.875 118.593 169.994 118.593 170.068 118.519L171.742 116.845L173.417 118.519C173.492 118.594 173.611 118.592 173.685 118.518L173.972 118.231C174.047 118.156 174.047 118.036 173.973 117.962L172.299 116.288L173.973 114.614C174.048 114.539 174.047 114.42 173.972 114.345L173.685 114.058C173.61 113.983 173.491 113.984 173.417 114.058L171.742 115.732L170.068 114.058C169.993 113.983 169.874 113.984 169.8 114.058L169.513 114.345C169.438 114.421 169.438 114.54 169.512 114.614L171.186 116.288Z" fill="white"/>
</mask>
<g mask="url(#mask2_47_1170)">
<rect x="167.17" y="111.715" width="9.14473" height="9.14473" fill="#7B858F"/>
</g>
<path fill-rule="evenodd" clip-rule="evenodd" d="M100.564 122.644L96.563 126.645L100.564 130.646L100.564 126.253L100.564 122.644Z" fill="#CED3D9"/>
<path fill-rule="evenodd" clip-rule="evenodd" d="M100.945 130.455L100.945 122.835L97.1343 126.645L100.945 130.455Z" fill="white"/>
<rect x="78.3303" y="114.937" width="37.2522" height="7.32831" rx="3.66415" fill="#DBD8EC"/>
<rect x="78.3303" y="125.734" width="86.7231" height="4.876" rx="2.438" fill="#DBD8EC"/>
<rect x="78.3303" y="134.093" width="86.7231" height="4.876" rx="2.438" fill="#DBD8EC"/>
<path fill-rule="evenodd" clip-rule="evenodd" d="M73.6413 120.25V114.589L71.3647 117.419L73.6413 120.25Z" fill="white"/>
<path fill-rule="evenodd" clip-rule="evenodd" d="M241.676 77.3222L241.676 82.9836L243.953 80.1531L241.676 77.3222Z" fill="#5441DA"/>
<defs>
<filter id="filter0_d_47_1170" x="87.0802" y="38.133" width="115.249" height="68.4751" filterUnits="userSpaceOnUse" color-interpolation-filters="sRGB">
<feFlood flood-opacity="0" result="BackgroundImageFix"/>
<feColorMatrix in="SourceAlpha" type="matrix" values="0 0 0 0 0 0 0 0 0 0 0 0 0 0 0 0 0 0 127 0" result="hardAlpha"/>
<feOffset dy="2.61895"/>
<feGaussianBlur stdDeviation="2.61895"/>
<feColorMatrix type="matrix" values="0 0 0 0 0 0 0 0 0 0 0 0 0 0 0 0 0 0 0.12 0"/>
<feBlend mode="normal" in2="BackgroundImageFix" result="effect1_dropShadow_47_1170"/>
<feBlend mode="normal" in="SourceGraphic" in2="effect1_dropShadow_47_1170" result="shape"/>
</filter>
<filter id="filter1_d_47_1170" x="124.857" y="57.591" width="127.333" height="77.3325" filterUnits="userSpaceOnUse" color-interpolation-filters="sRGB">
<feFlood flood-opacity="0" result="BackgroundImageFix"/>
<feColorMatrix in="SourceAlpha" type="matrix" values="0 0 0 0 0 0 0 0 0 0 0 0 0 0 0 0 0 0 127 0" result="hardAlpha"/>
<feOffset dy="-4.98919"/>
<feGaussianBlur stdDeviation="4.98919"/>
<feColorMatrix type="matrix" values="0 0 0 0 0 0 0 0 0 0 0 0 0 0 0 0 0 0 0.12 0"/>
<feBlend mode="normal" in2="BackgroundImageFix" result="effect1_dropShadow_47_1170"/>
<feBlend mode="normal" in="SourceGraphic" in2="effect1_dropShadow_47_1170" result="shape"/>
</filter>
<filter id="filter2_d_47_1170" x="131.983" y="69.9396" width="115.249" height="67.8515" filterUnits="userSpaceOnUse" color-interpolation-filters="sRGB">
<feFlood flood-opacity="0" result="BackgroundImageFix"/>
<feColorMatrix in="SourceAlpha" type="matrix" values="0 0 0 0 0 0 0 0 0 0 0 0 0 0 0 0 0 0 127 0" result="hardAlpha"/>
<feOffset dy="2.61895"/>
<feGaussianBlur stdDeviation="2.61895"/>
<feColorMatrix type="matrix" values="0 0 0 0 0 0 0 0 0 0 0 0 0 0 0 0 0 0 0.12 0"/>
<feBlend mode="normal" in2="BackgroundImageFix" result="effect1_dropShadow_47_1170"/>
<feBlend mode="normal" in="SourceGraphic" in2="effect1_dropShadow_47_1170" result="shape"/>
</filter>
<filter id="filter3_d_47_1170" x="66.9768" y="105.238" width="118.834" height="57.5355" filterUnits="userSpaceOnUse" color-interpolation-filters="sRGB">
<feFlood flood-opacity="0" result="BackgroundImageFix"/>
<feColorMatrix in="SourceAlpha" type="matrix" values="0 0 0 0 0 0 0 0 0 0 0 0 0 0 0 0 0 0 127 0" result="hardAlpha"/>
<feOffset dy="3.04824"/>
<feGaussianBlur stdDeviation="3.04824"/>
<feColorMatrix type="matrix" values="0 0 0 0 0 0 0 0 0 0 0 0 0 0 0 0 0 0 0.12 0"/>
<feBlend mode="normal" in2="BackgroundImageFix" result="effect1_dropShadow_47_1170"/>
<feBlend mode="normal" in="SourceGraphic" in2="effect1_dropShadow_47_1170" result="shape"/>
</filter>
<linearGradient id="paint0_linear_47_1170" x1="0.499992" y1="1.37293e-05" x2="306.5" y2="180" gradientUnits="userSpaceOnUse">
<stop stop-color="#403681"/>
<stop offset="1" stop-color="#0C063A"/>
</linearGradient>
</defs>
</svg>
