<svg width="316" height="180" viewBox="0 0 316 180" fill="none" xmlns="http://www.w3.org/2000/svg">
<path d="M0 12C0 5.37258 5.37258 0 12 0H303.667C310.294 0 315.667 5.37258 315.667 12V180H0V12Z" fill="url(#paint0_linear_47_1231)"/>
<g filter="url(#filter0_d_47_1231)">
<rect x="79.8206" y="37.8199" width="75.0272" height="124.8" rx="0.980747" fill="white"/>
<rect x="79.698" y="37.6974" width="75.2724" height="125.045" rx="1.10334" stroke="#DFE2E6" stroke-width="0.245187"/>
</g>
<rect x="86.9312" y="60.3771" width="61.0515" height="3.43262" rx="1.71631" fill="#CED3D9"/>
<g filter="url(#filter1_d_47_1231)">
<path d="M79.8206 154.774H154.848V161.639C154.848 162.181 154.409 162.62 153.867 162.62H80.8013C80.2597 162.62 79.8206 162.181 79.8206 161.639V154.774Z" fill="white"/>
</g>
<rect x="79.8206" y="154.774" width="75.0272" height="0.245187" fill="#DAE2E6"/>
<rect x="103.849" y="157.716" width="27.7061" height="1.96149" rx="0.980747" fill="#CED3D9"/>
<rect x="129.839" y="143.986" width="18.8794" height="7.84598" rx="3.92299" fill="#889AAA"/>
<path d="M113.992 149.457H113.471L113.474 149.123H113.992C114.143 149.123 114.269 149.09 114.371 149.024C114.474 148.958 114.551 148.864 114.602 148.741C114.655 148.618 114.681 148.472 114.681 148.302V148.169C114.681 148.038 114.666 147.921 114.636 147.819C114.607 147.717 114.563 147.632 114.505 147.563C114.448 147.493 114.378 147.441 114.294 147.405C114.211 147.369 114.116 147.352 114.007 147.352H113.461V147.016H114.007C114.169 147.016 114.317 147.044 114.452 147.098C114.586 147.152 114.701 147.23 114.798 147.331C114.897 147.433 114.972 147.555 115.025 147.697C115.077 147.839 115.104 147.997 115.104 148.173V148.302C115.104 148.477 115.077 148.636 115.025 148.778C114.972 148.92 114.897 149.042 114.798 149.143C114.7 149.244 114.583 149.321 114.447 149.376C114.311 149.43 114.16 149.457 113.992 149.457ZM113.704 147.016V149.457H113.283V147.016H113.704ZM115.977 147.643V149.457H115.571V147.643H115.977ZM115.545 147.167C115.545 147.106 115.565 147.055 115.605 147.015C115.646 146.973 115.703 146.953 115.776 146.953C115.847 146.953 115.904 146.973 115.945 147.015C115.986 147.055 116.007 147.106 116.007 147.167C116.007 147.227 115.986 147.278 115.945 147.318C115.904 147.358 115.847 147.378 115.776 147.378C115.703 147.378 115.646 147.358 115.605 147.318C115.565 147.278 115.545 147.227 115.545 147.167ZM117.496 148.966C117.496 148.925 117.486 148.889 117.465 148.857C117.445 148.823 117.407 148.793 117.35 148.766C117.294 148.739 117.211 148.715 117.102 148.692C117.006 148.671 116.917 148.646 116.837 148.617C116.758 148.587 116.689 148.55 116.632 148.508C116.575 148.466 116.531 148.415 116.5 148.357C116.469 148.299 116.453 148.232 116.453 148.156C116.453 148.082 116.469 148.012 116.502 147.947C116.534 147.881 116.581 147.822 116.641 147.772C116.701 147.722 116.774 147.682 116.86 147.653C116.948 147.624 117.045 147.61 117.152 147.61C117.304 147.61 117.434 147.635 117.543 147.687C117.652 147.737 117.736 147.806 117.794 147.893C117.852 147.979 117.881 148.076 117.881 148.185H117.477C117.477 148.136 117.465 148.092 117.44 148.05C117.417 148.008 117.381 147.974 117.333 147.948C117.285 147.921 117.225 147.908 117.152 147.908C117.083 147.908 117.025 147.919 116.979 147.941C116.935 147.963 116.901 147.991 116.879 148.025C116.858 148.06 116.847 148.098 116.847 148.139C116.847 148.169 116.853 148.197 116.864 148.221C116.876 148.245 116.896 148.267 116.924 148.287C116.952 148.306 116.99 148.324 117.038 148.34C117.087 148.357 117.149 148.373 117.222 148.389C117.361 148.418 117.48 148.455 117.579 148.501C117.68 148.546 117.757 148.604 117.811 148.676C117.864 148.746 117.891 148.835 117.891 148.944C117.891 149.024 117.874 149.098 117.839 149.165C117.806 149.231 117.757 149.288 117.692 149.338C117.627 149.386 117.549 149.423 117.459 149.45C117.369 149.477 117.269 149.49 117.157 149.49C116.993 149.49 116.854 149.461 116.74 149.403C116.626 149.344 116.539 149.268 116.48 149.177C116.422 149.084 116.393 148.988 116.393 148.888H116.783C116.788 148.963 116.808 149.023 116.845 149.068C116.883 149.111 116.93 149.143 116.986 149.163C117.043 149.182 117.102 149.192 117.162 149.192C117.235 149.192 117.296 149.182 117.345 149.163C117.394 149.143 117.431 149.116 117.457 149.083C117.483 149.048 117.496 149.009 117.496 148.966ZM118.708 148.012V149.457H118.304V147.643H118.684L118.708 148.012ZM118.642 148.483L118.505 148.481C118.505 148.356 118.52 148.24 118.552 148.134C118.583 148.028 118.629 147.936 118.689 147.858C118.75 147.778 118.824 147.717 118.914 147.675C119.004 147.631 119.109 147.61 119.227 147.61C119.31 147.61 119.385 147.622 119.454 147.646C119.523 147.67 119.583 147.707 119.633 147.759C119.684 147.81 119.723 147.876 119.75 147.957C119.778 148.037 119.792 148.134 119.792 148.248V149.457H119.388V148.283C119.388 148.195 119.375 148.126 119.348 148.076C119.322 148.025 119.285 147.99 119.236 147.968C119.188 147.946 119.13 147.935 119.063 147.935C118.987 147.935 118.922 147.949 118.869 147.978C118.816 148.007 118.773 148.047 118.74 148.097C118.706 148.148 118.681 148.206 118.666 148.272C118.65 148.338 118.642 148.408 118.642 148.483ZM119.767 148.376L119.578 148.417C119.578 148.308 119.593 148.205 119.623 148.107C119.654 148.009 119.699 147.923 119.759 147.849C119.819 147.774 119.893 147.716 119.981 147.673C120.07 147.631 120.171 147.61 120.285 147.61C120.378 147.61 120.46 147.622 120.533 147.648C120.607 147.673 120.669 147.712 120.721 147.765C120.772 147.819 120.811 147.889 120.838 147.975C120.865 148.06 120.878 148.163 120.878 148.283V149.457H120.473V148.282C120.473 148.19 120.459 148.119 120.432 148.069C120.407 148.019 120.37 147.984 120.322 147.965C120.274 147.945 120.216 147.935 120.149 147.935C120.087 147.935 120.031 147.947 119.983 147.97C119.936 147.992 119.897 148.024 119.864 148.066C119.832 148.106 119.807 148.152 119.79 148.205C119.775 148.257 119.767 148.314 119.767 148.376ZM121.785 147.643V149.457H121.38V147.643H121.785ZM121.353 147.167C121.353 147.106 121.373 147.055 121.413 147.015C121.454 146.973 121.511 146.953 121.584 146.953C121.656 146.953 121.712 146.973 121.753 147.015C121.795 147.055 121.815 147.106 121.815 147.167C121.815 147.227 121.795 147.278 121.753 147.318C121.712 147.358 121.656 147.378 121.584 147.378C121.511 147.378 121.454 147.358 121.413 147.318C121.373 147.278 121.353 147.227 121.353 147.167ZM123.304 148.966C123.304 148.925 123.294 148.889 123.274 148.857C123.254 148.823 123.215 148.793 123.158 148.766C123.102 148.739 123.019 148.715 122.91 148.692C122.814 148.671 122.726 148.646 122.645 148.617C122.566 148.587 122.498 148.55 122.441 148.508C122.384 148.466 122.34 148.415 122.308 148.357C122.277 148.299 122.261 148.232 122.261 148.156C122.261 148.082 122.278 148.012 122.31 147.947C122.342 147.881 122.389 147.822 122.449 147.772C122.509 147.722 122.583 147.682 122.669 147.653C122.756 147.624 122.853 147.61 122.96 147.61C123.112 147.61 123.242 147.635 123.351 147.687C123.46 147.737 123.544 147.806 123.602 147.893C123.66 147.979 123.689 148.076 123.689 148.185H123.285C123.285 148.136 123.273 148.092 123.249 148.05C123.225 148.008 123.189 147.974 123.141 147.948C123.093 147.921 123.033 147.908 122.96 147.908C122.891 147.908 122.833 147.919 122.788 147.941C122.743 147.963 122.709 147.991 122.687 148.025C122.666 148.06 122.655 148.098 122.655 148.139C122.655 148.169 122.661 148.197 122.672 148.221C122.684 148.245 122.704 148.267 122.732 148.287C122.76 148.306 122.798 148.324 122.846 148.34C122.895 148.357 122.957 148.373 123.031 148.389C123.169 148.418 123.288 148.455 123.388 148.501C123.488 148.546 123.565 148.604 123.619 148.676C123.673 148.746 123.699 148.835 123.699 148.944C123.699 149.024 123.682 149.098 123.647 149.165C123.614 149.231 123.565 149.288 123.5 149.338C123.435 149.386 123.357 149.423 123.267 149.45C123.178 149.477 123.077 149.49 122.965 149.49C122.801 149.49 122.662 149.461 122.548 149.403C122.434 149.344 122.347 149.268 122.288 149.177C122.23 149.084 122.201 148.988 122.201 148.888H122.592C122.596 148.963 122.617 149.023 122.654 149.068C122.692 149.111 122.738 149.143 122.794 149.163C122.851 149.182 122.91 149.192 122.97 149.192C123.043 149.192 123.104 149.182 123.153 149.163C123.202 149.143 123.24 149.116 123.265 149.083C123.291 149.048 123.304 149.009 123.304 148.966ZM125.129 148.966C125.129 148.925 125.119 148.889 125.099 148.857C125.079 148.823 125.04 148.793 124.983 148.766C124.928 148.739 124.845 148.715 124.735 148.692C124.639 148.671 124.551 148.646 124.471 148.617C124.391 148.587 124.323 148.55 124.266 148.508C124.209 148.466 124.165 148.415 124.134 148.357C124.102 148.299 124.087 148.232 124.087 148.156C124.087 148.082 124.103 148.012 124.135 147.947C124.168 147.881 124.214 147.822 124.274 147.772C124.335 147.722 124.408 147.682 124.494 147.653C124.581 147.624 124.678 147.61 124.786 147.61C124.938 147.61 125.068 147.635 125.176 147.687C125.286 147.737 125.37 147.806 125.428 147.893C125.486 147.979 125.515 148.076 125.515 148.185H125.111C125.111 148.136 125.099 148.092 125.074 148.05C125.05 148.008 125.015 147.974 124.967 147.948C124.919 147.921 124.858 147.908 124.786 147.908C124.716 147.908 124.659 147.919 124.613 147.941C124.568 147.963 124.535 147.991 124.512 148.025C124.491 148.06 124.481 148.098 124.481 148.139C124.481 148.169 124.486 148.197 124.497 148.221C124.51 148.245 124.53 148.267 124.558 148.287C124.586 148.306 124.624 148.324 124.672 148.34C124.721 148.357 124.782 148.373 124.856 148.389C124.995 148.418 125.114 148.455 125.213 148.501C125.314 148.546 125.391 148.604 125.444 148.676C125.498 148.746 125.525 148.835 125.525 148.944C125.525 149.024 125.508 149.098 125.473 149.165C125.439 149.231 125.39 149.288 125.325 149.338C125.261 149.386 125.183 149.423 125.092 149.45C125.003 149.477 124.902 149.49 124.791 149.49C124.626 149.49 124.487 149.461 124.373 149.403C124.259 149.344 124.173 149.268 124.114 149.177C124.055 149.084 124.026 148.988 124.026 148.888H124.417C124.421 148.963 124.442 149.023 124.479 149.068C124.517 149.111 124.564 149.143 124.62 149.163C124.677 149.182 124.735 149.192 124.796 149.192C124.868 149.192 124.929 149.182 124.978 149.163C125.028 149.143 125.065 149.116 125.091 149.083C125.116 149.048 125.129 149.009 125.129 148.966Z" fill="#0875E1"/>
<rect x="113.166" y="146.438" width="13.4853" height="3.43262" rx="1.71631" fill="#889AAA"/>
<rect x="85.7053" y="88.8187" width="19.1246" height="1.96149" rx="0.980747" fill="#CED3D9"/>
<rect x="130.084" y="88.8187" width="19.1246" height="1.96149" rx="0.980747" fill="#CED3D9"/>
<path d="M145.286 77.7503C147.066 77.7503 148.509 79.1932 148.509 80.9731C148.509 82.753 147.066 84.1959 145.286 84.1959C143.506 84.1959 142.063 82.753 142.063 80.9731C142.063 79.1932 143.506 77.7503 145.286 77.7503Z" stroke="#5441DA" stroke-width="0.909976"/>
<path d="M126.652 77.7503C128.432 77.7503 129.874 79.1932 129.874 80.9731C129.874 82.753 128.432 84.1959 126.652 84.1959C124.872 84.1959 123.429 82.753 123.429 80.9731C123.429 79.1932 124.872 77.7503 126.652 77.7503Z" stroke="#5441DA" stroke-width="0.909976"/>
<path d="M111.695 80.9731C111.695 78.9419 110.049 77.2953 108.017 77.2953C105.986 77.2953 104.34 78.9419 104.34 80.9731C104.34 83.0043 105.986 84.6509 108.017 84.6509C110.049 84.6509 111.695 83.0043 111.695 80.9731Z" fill="#5441DA"/>
<path d="M135.969 77.7503C137.748 77.7503 139.191 79.1932 139.191 80.9731C139.191 82.753 137.748 84.1959 135.969 84.1959C134.189 84.1959 132.746 82.753 132.746 80.9731C132.746 79.1932 134.189 77.7503 135.969 77.7503Z" stroke="#5441DA" stroke-width="0.909976"/>
<path d="M117.334 77.7503C119.114 77.7503 120.557 79.1932 120.557 80.9731C120.557 82.753 119.114 84.1959 117.334 84.1959C115.554 84.1959 114.111 82.753 114.111 80.9731C114.111 79.1932 115.554 77.7503 117.334 77.7503Z" stroke="#5441DA" stroke-width="0.909976"/>
<path d="M98.7003 77.7503C100.48 77.7503 101.923 79.1932 101.923 80.9731C101.923 82.753 100.48 84.1959 98.7003 84.1959C96.9204 84.1959 95.4774 82.753 95.4774 80.9731C95.4774 79.1932 96.9204 77.7503 98.7003 77.7503Z" stroke="#5441DA" stroke-width="0.909976"/>
<path d="M89.3831 77.7502C91.163 77.7502 92.6059 79.1931 92.6059 80.973C92.6059 82.7529 91.163 84.1958 89.3831 84.1958C87.6032 84.1958 86.1603 82.7529 86.1603 80.973C86.1603 79.1931 87.6032 77.7502 89.3831 77.7502Z" stroke="#5441DA" stroke-width="0.909976"/>
<rect x="86.9312" y="66.9974" width="32.855" height="3.43262" rx="1.71631" fill="#CED3D9"/>
<rect x="85.7053" y="132.216" width="19.1246" height="1.96149" rx="0.980747" fill="#CED3D9"/>
<rect x="130.084" y="132.216" width="19.1246" height="1.96149" rx="0.980747" fill="#CED3D9"/>
<path d="M145.286 120.413C147.066 120.413 148.509 121.855 148.509 123.635C148.509 125.415 147.066 126.858 145.286 126.858C143.506 126.858 142.063 125.415 142.063 123.635C142.063 121.855 143.506 120.413 145.286 120.413Z" stroke="#5441DA" stroke-width="0.909976"/>
<path d="M130.329 123.635C130.329 121.604 128.683 119.958 126.652 119.958C124.62 119.958 122.974 121.604 122.974 123.635C122.974 125.667 124.62 127.313 126.652 127.313C128.683 127.313 130.329 125.667 130.329 123.635Z" fill="#5441DA"/>
<path d="M108.017 120.413C109.797 120.413 111.24 121.855 111.24 123.635C111.24 125.415 109.797 126.858 108.017 126.858C106.237 126.858 104.795 125.415 104.795 123.635C104.795 121.855 106.237 120.413 108.017 120.413Z" stroke="#5441DA" stroke-width="0.909976"/>
<path d="M135.969 120.413C137.748 120.413 139.191 121.855 139.191 123.635C139.191 125.415 137.748 126.858 135.969 126.858C134.189 126.858 132.746 125.415 132.746 123.635C132.746 121.855 134.189 120.413 135.969 120.413Z" stroke="#5441DA" stroke-width="0.909976"/>
<path d="M117.334 120.413C119.114 120.413 120.557 121.855 120.557 123.635C120.557 125.415 119.114 126.858 117.334 126.858C115.554 126.858 114.111 125.415 114.111 123.635C114.111 121.855 115.554 120.413 117.334 120.413Z" stroke="#5441DA" stroke-width="0.909976"/>
<path d="M98.7003 120.413C100.48 120.413 101.923 121.855 101.923 123.635C101.923 125.415 100.48 126.858 98.7003 126.858C96.9204 126.858 95.4774 125.415 95.4774 123.635C95.4774 121.855 96.9204 120.413 98.7003 120.413Z" stroke="#5441DA" stroke-width="0.909976"/>
<path d="M89.3831 120.412C91.163 120.412 92.6059 121.855 92.6059 123.635C92.6059 125.415 91.163 126.858 89.3831 126.858C87.6032 126.858 86.1603 125.415 86.1603 123.635C86.1603 121.855 87.6032 120.412 89.3831 120.412Z" stroke="#5441DA" stroke-width="0.909976"/>
<rect x="86.9314" y="104.265" width="61.0515" height="3.43262" rx="1.71631" fill="#CED3D9"/>
<rect x="86.9314" y="110.885" width="32.855" height="3.43262" rx="1.71631" fill="#CED3D9"/>
<path d="M154.848 50.6918H154.97V50.5692V35.8579C154.97 35.2486 154.476 34.7546 153.867 34.7546H80.8013C80.1919 34.7546 79.698 35.2486 79.698 35.8579V50.5692V50.6918H79.8206H154.848Z" fill="#F6F7F8" stroke="#DFE2E6" stroke-width="0.245187"/>
<path fill-rule="evenodd" clip-rule="evenodd" d="M148.251 41.8678C148.183 41.7991 148.073 41.7991 148.006 41.8678V41.8678C147.94 41.9345 147.94 42.0414 148.006 42.1082L148.97 43.0913L148.006 44.0744C147.94 44.1412 147.94 44.2481 148.006 44.3149V44.3149C148.073 44.3835 148.183 44.3835 148.251 44.3149L149.21 43.3365L150.17 44.3149C150.237 44.3835 150.348 44.3835 150.415 44.3149V44.3149C150.481 44.2481 150.481 44.1412 150.415 44.0744L149.451 43.0913L150.415 42.1082C150.481 42.0414 150.481 41.9345 150.415 41.8678V41.8678C150.348 41.7991 150.237 41.7991 150.17 41.8678L149.21 42.8461L148.251 41.8678Z" fill="#7B858F"/>
<rect x="83.7437" y="40.7622" width="48.7922" height="4.90374" rx="2.45187" fill="#CED3D9"/>
<g filter="url(#filter2_d_47_1231)">
<rect x="160.808" y="117.021" width="74.5471" height="46.3467" rx="0.980883" fill="white"/>
<rect x="160.686" y="116.898" width="74.7923" height="46.5919" rx="1.10349" stroke="#DFE2E6" stroke-width="0.245221"/>
</g>
<rect x="174.213" y="136.55" width="53.6886" height="3.6399" rx="1.81995" fill="#CED3D9"/>
<rect x="174.213" y="142.919" width="43.6788" height="3.6399" rx="1.81995" fill="#CED3D9"/>
<rect x="165.113" y="136.55" width="6.36983" height="6.36983" rx="0.909976" fill="#D9D9D9"/>
<path d="M235.356 130.876H235.478V130.753V118.002C235.478 117.392 234.984 116.898 234.375 116.898H161.789C161.18 116.898 160.686 117.392 160.686 118.002V130.753V130.876H160.809H235.356Z" fill="#F6F7F8" stroke="#DFE2E6" stroke-width="0.245221"/>
<path fill-rule="evenodd" clip-rule="evenodd" d="M229.248 123.031C229.181 122.962 229.07 122.962 229.003 123.031V123.031C228.937 123.097 228.937 123.204 229.003 123.271L229.967 124.254L229.003 125.238C228.937 125.304 228.937 125.411 229.003 125.478V125.478C229.07 125.547 229.181 125.547 229.248 125.478L230.208 124.5L231.168 125.478C231.235 125.547 231.345 125.547 231.413 125.478V125.478C231.478 125.411 231.478 125.304 231.413 125.238L230.448 124.254L231.413 123.271C231.478 123.204 231.478 123.097 231.413 123.031V123.031C231.345 122.962 231.235 122.962 231.168 123.031L230.208 124.009L229.248 123.031Z" fill="#7B858F"/>
<path d="M165.285 122.994L165.795 124.107L166.304 122.994H166.852L166.05 124.546V125.434H165.54V124.546L164.735 122.994H165.285ZM166.916 124.546V124.511C166.916 124.378 166.935 124.255 166.973 124.144C167.011 124.031 167.067 123.933 167.139 123.85C167.212 123.768 167.301 123.703 167.408 123.658C167.514 123.611 167.635 123.587 167.773 123.587C167.91 123.587 168.033 123.611 168.14 123.658C168.247 123.703 168.337 123.768 168.41 123.85C168.484 123.933 168.54 124.031 168.578 124.144C168.616 124.255 168.635 124.378 168.635 124.511V124.546C168.635 124.678 168.616 124.8 168.578 124.913C168.54 125.025 168.484 125.123 168.41 125.206C168.337 125.289 168.248 125.353 168.142 125.399C168.036 125.445 167.914 125.468 167.776 125.468C167.639 125.468 167.516 125.445 167.409 125.399C167.303 125.353 167.213 125.289 167.139 125.206C167.067 125.123 167.011 125.025 166.973 124.913C166.935 124.8 166.916 124.678 166.916 124.546ZM167.399 124.511V124.546C167.399 124.622 167.406 124.693 167.419 124.759C167.433 124.825 167.454 124.883 167.483 124.933C167.513 124.982 167.552 125.021 167.6 125.049C167.648 125.077 167.707 125.091 167.776 125.091C167.843 125.091 167.901 125.077 167.949 125.049C167.997 125.021 168.036 124.982 168.065 124.933C168.094 124.883 168.115 124.825 168.128 124.759C168.143 124.693 168.15 124.622 168.15 124.546V124.511C168.15 124.437 168.143 124.368 168.128 124.303C168.115 124.237 168.093 124.179 168.063 124.129C168.034 124.077 167.995 124.037 167.947 124.008C167.899 123.979 167.841 123.964 167.773 123.964C167.705 123.964 167.647 123.979 167.599 124.008C167.552 124.037 167.513 124.077 167.483 124.129C167.454 124.179 167.433 124.237 167.419 124.303C167.406 124.368 167.399 124.437 167.399 124.511ZM170.063 125V123.621H170.546V125.434H170.091L170.063 125ZM170.117 124.628L170.259 124.625C170.259 124.745 170.245 124.858 170.217 124.962C170.189 125.065 170.147 125.154 170.091 125.23C170.036 125.305 169.965 125.363 169.88 125.406C169.795 125.447 169.695 125.468 169.58 125.468C169.492 125.468 169.41 125.456 169.335 125.431C169.262 125.405 169.198 125.366 169.144 125.312C169.092 125.257 169.05 125.187 169.02 125.103C168.991 125.016 168.977 124.913 168.977 124.792V123.621H169.46V124.796C169.46 124.849 169.466 124.895 169.478 124.932C169.491 124.968 169.51 124.999 169.533 125.022C169.557 125.046 169.584 125.062 169.615 125.072C169.648 125.082 169.684 125.087 169.723 125.087C169.822 125.087 169.9 125.067 169.957 125.027C170.015 124.987 170.056 124.932 170.08 124.863C170.104 124.792 170.117 124.714 170.117 124.628ZM171.456 124.016V125.434H170.973V123.621H171.428L171.456 124.016ZM172.003 123.609L171.994 124.057C171.971 124.053 171.942 124.05 171.909 124.048C171.876 124.045 171.847 124.043 171.82 124.043C171.752 124.043 171.693 124.052 171.642 124.07C171.593 124.087 171.552 124.112 171.518 124.145C171.486 124.179 171.461 124.22 171.444 124.268C171.429 124.316 171.42 124.371 171.418 124.432L171.32 124.402C171.32 124.284 171.332 124.177 171.356 124.078C171.379 123.979 171.413 123.892 171.458 123.818C171.504 123.745 171.56 123.688 171.625 123.647C171.691 123.607 171.767 123.587 171.852 123.587C171.879 123.587 171.906 123.589 171.934 123.594C171.962 123.597 171.985 123.602 172.003 123.609ZM173.818 125.434H173.332V123.46C173.332 123.322 173.359 123.207 173.413 123.113C173.468 123.018 173.544 122.946 173.642 122.898C173.742 122.849 173.86 122.824 173.996 122.824C174.041 122.824 174.084 122.828 174.125 122.834C174.167 122.84 174.207 122.847 174.246 122.856L174.241 123.22C174.22 123.214 174.197 123.211 174.174 123.208C174.15 123.206 174.123 123.205 174.092 123.205C174.034 123.205 173.984 123.215 173.943 123.235C173.902 123.254 173.872 123.283 173.85 123.321C173.829 123.359 173.818 123.405 173.818 123.46V125.434ZM174.181 123.621V123.963H173.062V123.621H174.181ZM175.287 125.468C175.146 125.468 175.02 125.446 174.908 125.401C174.796 125.355 174.702 125.292 174.623 125.211C174.546 125.131 174.487 125.038 174.446 124.932C174.404 124.824 174.384 124.71 174.384 124.59V124.523C174.384 124.385 174.403 124.259 174.442 124.145C174.481 124.031 174.537 123.932 174.61 123.849C174.684 123.765 174.773 123.701 174.878 123.656C174.983 123.61 175.102 123.587 175.233 123.587C175.362 123.587 175.476 123.608 175.575 123.651C175.675 123.693 175.758 123.754 175.825 123.832C175.893 123.91 175.945 124.004 175.979 124.114C176.014 124.222 176.031 124.343 176.031 124.476V124.677H174.59V124.355H175.557V124.318C175.557 124.251 175.545 124.191 175.52 124.139C175.497 124.085 175.461 124.043 175.413 124.011C175.365 123.98 175.303 123.964 175.228 123.964C175.165 123.964 175.11 123.978 175.064 124.006C175.018 124.034 174.981 124.073 174.952 124.124C174.924 124.174 174.903 124.233 174.888 124.301C174.875 124.368 174.868 124.442 174.868 124.523V124.59C174.868 124.662 174.878 124.729 174.898 124.791C174.919 124.852 174.949 124.905 174.987 124.95C175.026 124.995 175.073 125.029 175.128 125.054C175.184 125.079 175.247 125.091 175.317 125.091C175.404 125.091 175.485 125.074 175.56 125.041C175.636 125.006 175.702 124.954 175.756 124.885L175.991 125.139C175.953 125.194 175.901 125.247 175.835 125.297C175.77 125.347 175.692 125.389 175.601 125.421C175.509 125.452 175.404 125.468 175.287 125.468ZM177.2 125.468C177.059 125.468 176.933 125.446 176.821 125.401C176.709 125.355 176.614 125.292 176.536 125.211C176.459 125.131 176.4 125.038 176.358 124.932C176.317 124.824 176.296 124.71 176.296 124.59V124.523C176.296 124.385 176.316 124.259 176.355 124.145C176.394 124.031 176.45 123.932 176.523 123.849C176.596 123.765 176.686 123.701 176.791 123.656C176.896 123.61 177.014 123.587 177.146 123.587C177.275 123.587 177.389 123.608 177.488 123.651C177.588 123.693 177.671 123.754 177.738 123.832C177.806 123.91 177.858 124.004 177.892 124.114C177.927 124.222 177.944 124.343 177.944 124.476V124.677H176.503V124.355H177.47V124.318C177.47 124.251 177.458 124.191 177.433 124.139C177.409 124.085 177.374 124.043 177.326 124.011C177.278 123.98 177.216 123.964 177.141 123.964C177.078 123.964 177.023 123.978 176.977 124.006C176.931 124.034 176.894 124.073 176.865 124.124C176.837 124.174 176.816 124.233 176.801 124.301C176.788 124.368 176.781 124.442 176.781 124.523V124.59C176.781 124.662 176.791 124.729 176.811 124.791C176.832 124.852 176.862 124.905 176.9 124.95C176.939 124.995 176.986 125.029 177.041 125.054C177.097 125.079 177.16 125.091 177.23 125.091C177.317 125.091 177.398 125.074 177.473 125.041C177.549 125.006 177.615 124.954 177.669 124.885L177.904 125.139C177.866 125.194 177.814 125.247 177.748 125.297C177.683 125.347 177.605 125.389 177.513 125.421C177.422 125.452 177.317 125.468 177.2 125.468ZM179.349 125.039V122.86H179.835V125.434H179.398L179.349 125.039ZM178.203 124.549V124.514C178.203 124.376 178.218 124.25 178.25 124.137C178.281 124.023 178.327 123.925 178.387 123.844C178.447 123.762 178.522 123.699 178.61 123.654C178.698 123.61 178.799 123.587 178.912 123.587C179.018 123.587 179.111 123.61 179.19 123.654C179.27 123.699 179.339 123.763 179.394 123.845C179.451 123.927 179.497 124.024 179.532 124.135C179.567 124.246 179.592 124.367 179.607 124.499V124.576C179.592 124.702 179.567 124.82 179.532 124.928C179.497 125.037 179.451 125.132 179.394 125.213C179.339 125.294 179.27 125.356 179.19 125.401C179.109 125.446 179.016 125.468 178.908 125.468C178.795 125.468 178.695 125.445 178.607 125.399C178.519 125.353 178.446 125.289 178.385 125.206C178.326 125.124 178.281 125.027 178.25 124.915C178.218 124.803 178.203 124.681 178.203 124.549ZM178.685 124.514V124.549C178.685 124.624 178.691 124.694 178.702 124.759C178.714 124.824 178.734 124.881 178.761 124.932C178.789 124.981 178.824 125.019 178.868 125.047C178.913 125.074 178.967 125.087 179.031 125.087C179.113 125.087 179.182 125.069 179.235 125.032C179.289 124.994 179.33 124.942 179.358 124.876C179.387 124.81 179.403 124.734 179.408 124.648V124.429C179.404 124.358 179.394 124.295 179.378 124.239C179.362 124.182 179.339 124.134 179.307 124.093C179.277 124.053 179.239 124.022 179.193 124C179.149 123.977 179.095 123.966 179.034 123.966C178.971 123.966 178.918 123.981 178.873 124.01C178.828 124.038 178.792 124.076 178.764 124.125C178.737 124.174 178.717 124.233 178.704 124.3C178.691 124.366 178.685 124.437 178.685 124.514ZM180.271 122.86H180.754V125.019L180.705 125.434H180.271V122.86ZM181.902 124.509V124.544C181.902 124.68 181.888 124.804 181.859 124.916C181.831 125.029 181.787 125.127 181.728 125.21C181.669 125.291 181.595 125.355 181.507 125.401C181.42 125.446 181.317 125.468 181.198 125.468C181.088 125.468 180.992 125.446 180.91 125.401C180.83 125.356 180.762 125.293 180.707 125.211C180.652 125.13 180.608 125.034 180.575 124.925C180.541 124.815 180.516 124.696 180.499 124.566V124.489C180.516 124.359 180.541 124.24 180.575 124.13C180.608 124.021 180.652 123.925 180.707 123.844C180.762 123.762 180.83 123.699 180.91 123.654C180.99 123.61 181.085 123.587 181.195 123.587C181.315 123.587 181.418 123.61 181.507 123.656C181.596 123.701 181.67 123.764 181.728 123.847C181.787 123.929 181.831 124.026 181.859 124.139C181.888 124.25 181.902 124.374 181.902 124.509ZM181.42 124.544V124.509C181.42 124.435 181.414 124.366 181.403 124.301C181.393 124.235 181.375 124.178 181.349 124.129C181.323 124.078 181.288 124.039 181.244 124.01C181.2 123.981 181.144 123.966 181.074 123.966C181.008 123.966 180.952 123.977 180.907 124C180.861 124.022 180.823 124.053 180.793 124.093C180.764 124.134 180.742 124.182 180.727 124.238C180.713 124.292 180.704 124.353 180.7 124.419V124.638C180.704 124.726 180.718 124.805 180.744 124.873C180.771 124.94 180.811 124.993 180.865 125.032C180.919 125.07 180.99 125.089 181.078 125.089C181.146 125.089 181.202 125.076 181.247 125.049C181.292 125.022 181.326 124.984 181.351 124.935C181.377 124.886 181.394 124.828 181.405 124.762C181.415 124.695 181.42 124.623 181.42 124.544ZM183.24 125.025V124.217C183.24 124.159 183.231 124.11 183.212 124.068C183.193 124.026 183.163 123.993 183.123 123.969C183.084 123.946 183.033 123.934 182.97 123.934C182.917 123.934 182.87 123.944 182.831 123.963C182.792 123.981 182.762 124.007 182.741 124.041C182.719 124.075 182.709 124.115 182.709 124.16H182.226C182.226 124.083 182.244 124.01 182.28 123.941C182.315 123.872 182.367 123.811 182.436 123.758C182.504 123.704 182.585 123.663 182.679 123.632C182.774 123.602 182.88 123.587 182.997 123.587C183.138 123.587 183.263 123.611 183.373 123.658C183.482 123.704 183.568 123.775 183.631 123.869C183.695 123.963 183.726 124.08 183.726 124.221V124.997C183.726 125.096 183.733 125.178 183.745 125.242C183.757 125.304 183.775 125.359 183.798 125.406V125.434H183.311C183.287 125.385 183.269 125.324 183.257 125.25C183.246 125.175 183.24 125.1 183.24 125.025ZM183.304 124.33L183.307 124.603H183.037C182.974 124.603 182.918 124.61 182.871 124.625C182.825 124.639 182.786 124.66 182.756 124.687C182.726 124.713 182.703 124.743 182.689 124.777C182.675 124.812 182.669 124.85 182.669 124.891C182.669 124.933 182.678 124.97 182.697 125.004C182.716 125.036 182.744 125.062 182.779 125.081C182.815 125.099 182.857 125.108 182.905 125.108C182.978 125.108 183.041 125.093 183.094 125.064C183.148 125.035 183.189 124.999 183.218 124.957C183.249 124.914 183.264 124.874 183.265 124.836L183.393 125.041C183.375 125.086 183.35 125.134 183.319 125.183C183.289 125.232 183.25 125.279 183.203 125.322C183.156 125.365 183.1 125.4 183.034 125.428C182.968 125.455 182.89 125.468 182.799 125.468C182.684 125.468 182.58 125.445 182.486 125.399C182.393 125.352 182.319 125.288 182.265 125.206C182.211 125.124 182.184 125.03 182.184 124.925C182.184 124.83 182.202 124.745 182.238 124.672C182.274 124.598 182.326 124.536 182.395 124.486C182.466 124.434 182.554 124.396 182.659 124.37C182.764 124.343 182.885 124.33 183.024 124.33H183.304ZM184.907 125.091C184.966 125.091 185.018 125.08 185.064 125.057C185.11 125.034 185.146 125.001 185.172 124.96C185.198 124.918 185.212 124.868 185.213 124.811H185.668C185.667 124.938 185.633 125.052 185.565 125.151C185.498 125.249 185.408 125.327 185.296 125.384C185.183 125.44 185.056 125.468 184.917 125.468C184.776 125.468 184.653 125.445 184.548 125.398C184.444 125.351 184.357 125.286 184.288 125.203C184.219 125.119 184.167 125.022 184.132 124.911C184.098 124.8 184.08 124.68 184.08 124.553V124.504C184.08 124.376 184.098 124.256 184.132 124.145C184.167 124.034 184.219 123.936 184.288 123.854C184.357 123.77 184.444 123.704 184.548 123.658C184.652 123.611 184.774 123.587 184.913 123.587C185.062 123.587 185.192 123.616 185.304 123.673C185.417 123.73 185.505 123.811 185.569 123.917C185.634 124.022 185.667 124.147 185.668 124.291H185.213C185.212 124.231 185.199 124.176 185.175 124.127C185.151 124.078 185.117 124.039 185.071 124.01C185.026 123.979 184.971 123.964 184.905 123.964C184.835 123.964 184.777 123.979 184.732 124.01C184.688 124.039 184.653 124.079 184.628 124.13C184.604 124.181 184.587 124.238 184.576 124.303C184.568 124.367 184.563 124.434 184.563 124.504V124.553C184.563 124.623 184.568 124.691 184.576 124.756C184.585 124.82 184.602 124.878 184.627 124.928C184.652 124.978 184.688 125.018 184.732 125.047C184.777 125.076 184.835 125.091 184.907 125.091ZM186.489 122.858V125.434H186.007V122.858H186.489ZM187.633 123.621L186.845 124.519L186.422 124.947L186.246 124.598L186.582 124.172L187.053 123.621H187.633ZM187.131 125.434L186.595 124.596L186.929 124.305L187.688 125.434H187.131ZM189.331 124.965L189.708 123.621H190.015L189.916 124.149L189.539 125.434H189.282L189.331 124.965ZM189.14 123.621L189.41 124.963L189.435 125.434H189.133L188.674 123.621H189.14ZM190.36 124.942L190.623 123.621H191.091L190.632 125.434H190.332L190.36 124.942ZM190.057 123.621L190.432 124.955L190.484 125.434H190.226L189.849 124.15L189.753 123.621H190.057ZM192.372 125.025V124.217C192.372 124.159 192.363 124.11 192.344 124.068C192.325 124.026 192.295 123.993 192.255 123.969C192.216 123.946 192.165 123.934 192.102 123.934C192.049 123.934 192.002 123.944 191.963 123.963C191.924 123.981 191.894 124.007 191.873 124.041C191.851 124.075 191.841 124.115 191.841 124.16H191.358C191.358 124.083 191.376 124.01 191.412 123.941C191.447 123.872 191.499 123.811 191.567 123.758C191.636 123.704 191.717 123.663 191.81 123.632C191.905 123.602 192.012 123.587 192.129 123.587C192.27 123.587 192.395 123.611 192.504 123.658C192.614 123.704 192.7 123.775 192.763 123.869C192.826 123.963 192.858 124.08 192.858 124.221V124.997C192.858 125.096 192.864 125.178 192.877 125.242C192.889 125.304 192.907 125.359 192.93 125.406V125.434H192.442C192.419 125.385 192.401 125.324 192.389 125.25C192.378 125.175 192.372 125.1 192.372 125.025ZM192.436 124.33L192.439 124.603H192.169C192.106 124.603 192.05 124.61 192.003 124.625C191.956 124.639 191.918 124.66 191.888 124.687C191.857 124.713 191.835 124.743 191.821 124.777C191.807 124.812 191.8 124.85 191.8 124.891C191.8 124.933 191.81 124.97 191.829 125.004C191.848 125.036 191.875 125.062 191.911 125.081C191.947 125.099 191.989 125.108 192.037 125.108C192.109 125.108 192.173 125.093 192.226 125.064C192.28 125.035 192.321 124.999 192.35 124.957C192.38 124.914 192.396 124.874 192.397 124.836L192.525 125.041C192.507 125.086 192.482 125.134 192.451 125.183C192.421 125.232 192.382 125.279 192.335 125.322C192.288 125.365 192.232 125.4 192.166 125.428C192.1 125.455 192.022 125.468 191.931 125.468C191.816 125.468 191.712 125.445 191.618 125.399C191.525 125.352 191.451 125.288 191.396 125.206C191.343 125.124 191.316 125.03 191.316 124.925C191.316 124.83 191.334 124.745 191.37 124.672C191.405 124.598 191.458 124.536 191.527 124.486C191.598 124.434 191.685 124.396 191.79 124.37C191.895 124.343 192.017 124.33 192.156 124.33H192.436ZM194.27 124.933C194.27 124.899 194.26 124.867 194.24 124.839C194.22 124.811 194.182 124.786 194.127 124.762C194.074 124.738 193.996 124.715 193.894 124.695C193.803 124.675 193.717 124.65 193.638 124.62C193.56 124.588 193.491 124.551 193.433 124.507C193.376 124.464 193.332 124.412 193.299 124.353C193.267 124.293 193.251 124.224 193.251 124.147C193.251 124.071 193.267 124 193.299 123.932C193.333 123.865 193.38 123.806 193.442 123.755C193.504 123.702 193.58 123.661 193.67 123.632C193.76 123.602 193.862 123.587 193.975 123.587C194.132 123.587 194.268 123.612 194.38 123.663C194.494 123.713 194.582 123.782 194.642 123.87C194.703 123.958 194.734 124.057 194.734 124.169H194.251C194.251 124.122 194.241 124.08 194.221 124.043C194.202 124.005 194.172 123.975 194.131 123.954C194.09 123.932 194.038 123.921 193.973 123.921C193.919 123.921 193.873 123.93 193.834 123.949C193.795 123.967 193.765 123.992 193.743 124.023C193.723 124.053 193.713 124.087 193.713 124.124C193.713 124.152 193.719 124.177 193.73 124.199C193.742 124.22 193.762 124.24 193.789 124.258C193.816 124.276 193.85 124.292 193.893 124.308C193.936 124.322 193.99 124.336 194.054 124.348C194.184 124.375 194.301 124.41 194.404 124.454C194.507 124.496 194.588 124.554 194.649 124.628C194.709 124.701 194.739 124.796 194.739 124.915C194.739 124.995 194.721 125.069 194.686 125.136C194.65 125.203 194.598 125.262 194.531 125.312C194.464 125.361 194.384 125.4 194.29 125.428C194.197 125.455 194.093 125.468 193.976 125.468C193.808 125.468 193.665 125.438 193.547 125.377C193.431 125.317 193.343 125.241 193.282 125.148C193.223 125.054 193.194 124.958 193.194 124.859H193.651C193.653 124.925 193.67 124.978 193.702 125.019C193.734 125.059 193.775 125.088 193.824 125.106C193.874 125.124 193.928 125.133 193.987 125.133C194.049 125.133 194.101 125.124 194.142 125.108C194.184 125.09 194.215 125.066 194.236 125.037C194.259 125.007 194.27 124.972 194.27 124.933ZM197.006 124.933C197.006 124.899 196.996 124.867 196.976 124.839C196.956 124.811 196.918 124.786 196.863 124.762C196.81 124.738 196.732 124.715 196.63 124.695C196.539 124.675 196.453 124.65 196.374 124.62C196.296 124.588 196.228 124.551 196.169 124.507C196.112 124.464 196.068 124.412 196.035 124.353C196.003 124.293 195.987 124.224 195.987 124.147C195.987 124.071 196.003 124 196.035 123.932C196.069 123.865 196.116 123.806 196.178 123.755C196.24 123.702 196.316 123.661 196.406 123.632C196.496 123.602 196.598 123.587 196.711 123.587C196.868 123.587 197.004 123.612 197.117 123.663C197.231 123.713 197.318 123.782 197.378 123.87C197.44 123.958 197.47 124.057 197.47 124.169H196.987C196.987 124.122 196.977 124.08 196.957 124.043C196.938 124.005 196.908 123.975 196.867 123.954C196.827 123.932 196.774 123.921 196.709 123.921C196.656 123.921 196.609 123.93 196.57 123.949C196.531 123.967 196.501 123.992 196.48 124.023C196.459 124.053 196.449 124.087 196.449 124.124C196.449 124.152 196.455 124.177 196.466 124.199C196.478 124.22 196.498 124.24 196.525 124.258C196.552 124.276 196.586 124.292 196.629 124.308C196.672 124.322 196.726 124.336 196.79 124.348C196.92 124.375 197.037 124.41 197.14 124.454C197.243 124.496 197.324 124.554 197.385 124.628C197.445 124.701 197.475 124.796 197.475 124.915C197.475 124.995 197.457 125.069 197.422 125.136C197.386 125.203 197.334 125.262 197.267 125.312C197.2 125.361 197.12 125.4 197.026 125.428C196.933 125.455 196.829 125.468 196.713 125.468C196.544 125.468 196.401 125.438 196.283 125.377C196.167 125.317 196.079 125.241 196.019 125.148C195.959 125.054 195.93 124.958 195.93 124.859H196.387C196.39 124.925 196.406 124.978 196.438 125.019C196.47 125.059 196.511 125.088 196.56 125.106C196.61 125.124 196.665 125.133 196.723 125.133C196.785 125.133 196.837 125.124 196.879 125.108C196.92 125.09 196.951 125.066 196.972 125.037C196.995 125.007 197.006 124.972 197.006 124.933ZM198.92 125V123.621H199.403V125.434H198.949L198.92 125ZM198.974 124.628L199.117 124.625C199.117 124.745 199.103 124.858 199.075 124.962C199.047 125.065 199.005 125.154 198.949 125.23C198.893 125.305 198.823 125.363 198.738 125.406C198.653 125.447 198.553 125.468 198.438 125.468C198.349 125.468 198.268 125.456 198.193 125.431C198.119 125.405 198.055 125.366 198.002 125.312C197.949 125.257 197.908 125.187 197.878 125.103C197.849 125.016 197.834 124.913 197.834 124.792V123.621H198.317V124.796C198.317 124.849 198.323 124.895 198.335 124.932C198.349 124.968 198.367 124.999 198.391 125.022C198.414 125.046 198.442 125.062 198.473 125.072C198.505 125.082 198.541 125.087 198.58 125.087C198.68 125.087 198.758 125.067 198.815 125.027C198.873 124.987 198.914 124.932 198.937 124.863C198.962 124.792 198.974 124.714 198.974 124.628ZM199.831 122.86H200.314V125.019L200.265 125.434H199.831V122.86ZM201.462 124.509V124.544C201.462 124.68 201.447 124.804 201.418 124.916C201.39 125.029 201.347 125.127 201.288 125.21C201.228 125.291 201.155 125.355 201.066 125.401C200.979 125.446 200.876 125.468 200.758 125.468C200.647 125.468 200.551 125.446 200.47 125.401C200.389 125.356 200.321 125.293 200.267 125.211C200.212 125.13 200.168 125.034 200.134 124.925C200.101 124.815 200.076 124.696 200.059 124.566V124.489C200.076 124.359 200.101 124.24 200.134 124.13C200.168 124.021 200.212 123.925 200.267 123.844C200.321 123.762 200.389 123.699 200.47 123.654C200.55 123.61 200.645 123.587 200.755 123.587C200.874 123.587 200.978 123.61 201.066 123.656C201.156 123.701 201.229 123.764 201.288 123.847C201.347 123.929 201.39 124.026 201.418 124.139C201.447 124.25 201.462 124.374 201.462 124.509ZM200.979 124.544V124.509C200.979 124.435 200.974 124.366 200.962 124.301C200.952 124.235 200.934 124.178 200.909 124.129C200.883 124.078 200.848 124.039 200.803 124.01C200.76 123.981 200.703 123.966 200.634 123.966C200.568 123.966 200.512 123.977 200.466 124C200.42 124.022 200.382 124.053 200.352 124.093C200.323 124.134 200.301 124.182 200.287 124.238C200.272 124.292 200.263 124.353 200.26 124.419V124.638C200.263 124.726 200.278 124.805 200.304 124.873C200.33 124.94 200.371 124.993 200.424 125.032C200.479 125.07 200.55 125.089 200.637 125.089C200.705 125.089 200.762 125.076 200.806 125.049C200.851 125.022 200.886 124.984 200.91 124.935C200.936 124.886 200.954 124.828 200.964 124.762C200.974 124.695 200.979 124.623 200.979 124.544ZM202.304 123.996V125.434H201.819V123.621H202.273L202.304 123.996ZM202.237 124.464H202.102C202.102 124.338 202.118 124.221 202.148 124.115C202.179 124.008 202.224 123.915 202.284 123.837C202.344 123.758 202.418 123.696 202.506 123.653C202.595 123.609 202.697 123.587 202.813 123.587C202.894 123.587 202.967 123.599 203.035 123.624C203.102 123.647 203.159 123.685 203.207 123.736C203.256 123.787 203.294 123.853 203.321 123.934C203.348 124.015 203.361 124.111 203.361 124.224V125.434H202.879V124.278C202.879 124.195 202.867 124.131 202.845 124.087C202.823 124.042 202.791 124.011 202.75 123.993C202.709 123.975 202.661 123.966 202.604 123.966C202.541 123.966 202.486 123.979 202.439 124.005C202.394 124.03 202.356 124.066 202.325 124.112C202.295 124.157 202.273 124.209 202.258 124.269C202.244 124.33 202.237 124.395 202.237 124.464ZM203.316 124.409L203.143 124.43C203.143 124.312 203.158 124.202 203.187 124.1C203.217 123.998 203.261 123.909 203.319 123.832C203.379 123.755 203.452 123.695 203.539 123.653C203.626 123.609 203.727 123.587 203.841 123.587C203.928 123.587 204.007 123.6 204.079 123.626C204.15 123.65 204.211 123.69 204.262 123.745C204.313 123.798 204.352 123.869 204.379 123.956C204.407 124.043 204.421 124.15 204.421 124.276V125.434H203.936V124.276C203.936 124.192 203.925 124.129 203.903 124.085C203.882 124.04 203.85 124.01 203.809 123.993C203.769 123.975 203.721 123.966 203.665 123.966C203.607 123.966 203.556 123.978 203.512 124.001C203.469 124.024 203.432 124.055 203.403 124.095C203.374 124.135 203.352 124.182 203.338 124.236C203.323 124.288 203.316 124.346 203.316 124.409ZM205.363 123.621V125.434H204.879V123.621H205.363ZM204.848 123.148C204.848 123.078 204.873 123.019 204.922 122.974C204.971 122.928 205.037 122.905 205.12 122.905C205.202 122.905 205.267 122.928 205.316 122.974C205.366 123.019 205.392 123.078 205.392 123.148C205.392 123.218 205.366 123.276 205.316 123.322C205.267 123.368 205.202 123.391 205.12 123.391C205.037 123.391 204.971 123.368 204.922 123.322C204.873 123.276 204.848 123.218 204.848 123.148ZM206.709 123.621V123.963H205.653V123.621H206.709ZM205.915 123.173H206.398V124.888C206.398 124.94 206.404 124.981 206.418 125.009C206.432 125.037 206.453 125.056 206.481 125.067C206.509 125.077 206.545 125.082 206.587 125.082C206.617 125.082 206.644 125.081 206.667 125.079C206.692 125.076 206.713 125.072 206.729 125.069L206.731 125.424C206.69 125.438 206.645 125.448 206.597 125.456C206.549 125.464 206.496 125.468 206.438 125.468C206.332 125.468 206.239 125.451 206.16 125.416C206.081 125.38 206.021 125.323 205.978 125.245C205.936 125.167 205.915 125.064 205.915 124.937V123.173ZM207.932 123.621V123.963H206.875V123.621H207.932ZM207.137 123.173H207.62V124.888C207.62 124.94 207.626 124.981 207.64 125.009C207.654 125.037 207.676 125.056 207.704 125.067C207.732 125.077 207.767 125.082 207.809 125.082C207.839 125.082 207.866 125.081 207.89 125.079C207.914 125.076 207.935 125.072 207.952 125.069L207.953 125.424C207.912 125.438 207.867 125.448 207.819 125.456C207.771 125.464 207.718 125.468 207.66 125.468C207.554 125.468 207.461 125.451 207.382 125.416C207.304 125.38 207.243 125.323 207.201 125.245C207.158 125.167 207.137 125.064 207.137 124.937V123.173ZM209.1 125.468C208.959 125.468 208.833 125.446 208.721 125.401C208.61 125.355 208.515 125.292 208.436 125.211C208.359 125.131 208.3 125.038 208.259 124.932C208.217 124.824 208.197 124.71 208.197 124.59V124.523C208.197 124.385 208.216 124.259 208.255 124.145C208.294 124.031 208.35 123.932 208.423 123.849C208.497 123.765 208.586 123.701 208.691 123.656C208.796 123.61 208.915 123.587 209.046 123.587C209.175 123.587 209.289 123.608 209.388 123.651C209.488 123.693 209.571 123.754 209.638 123.832C209.706 123.91 209.758 124.004 209.792 124.114C209.827 124.222 209.844 124.343 209.844 124.476V124.677H208.403V124.355H209.37V124.318C209.37 124.251 209.358 124.191 209.333 124.139C209.31 124.085 209.274 124.043 209.226 124.011C209.178 123.98 209.116 123.964 209.041 123.964C208.978 123.964 208.923 123.978 208.877 124.006C208.831 124.034 208.794 124.073 208.765 124.124C208.737 124.174 208.716 124.233 208.701 124.301C208.688 124.368 208.681 124.442 208.681 124.523V124.59C208.681 124.662 208.691 124.729 208.711 124.791C208.732 124.852 208.762 124.905 208.8 124.95C208.839 124.995 208.886 125.029 208.941 125.054C208.997 125.079 209.06 125.091 209.13 125.091C209.217 125.091 209.298 125.074 209.373 125.041C209.449 125.006 209.515 124.954 209.569 124.885L209.804 125.139C209.766 125.194 209.714 125.247 209.648 125.297C209.583 125.347 209.505 125.389 209.414 125.421C209.322 125.452 209.217 125.468 209.1 125.468ZM211.249 125.039V122.86H211.735V125.434H211.298L211.249 125.039ZM210.103 124.549V124.514C210.103 124.376 210.118 124.25 210.15 124.137C210.181 124.023 210.227 123.925 210.287 123.844C210.347 123.762 210.422 123.699 210.51 123.654C210.598 123.61 210.699 123.587 210.812 123.587C210.918 123.587 211.011 123.61 211.09 123.654C211.171 123.699 211.239 123.763 211.295 123.845C211.352 123.927 211.397 124.024 211.432 124.135C211.467 124.246 211.492 124.367 211.508 124.499V124.576C211.492 124.702 211.467 124.82 211.432 124.928C211.397 125.037 211.352 125.132 211.295 125.213C211.239 125.294 211.171 125.356 211.09 125.401C211.01 125.446 210.916 125.468 210.808 125.468C210.696 125.468 210.595 125.445 210.507 125.399C210.42 125.353 210.346 125.289 210.285 125.206C210.226 125.124 210.181 125.027 210.15 124.915C210.118 124.803 210.103 124.681 210.103 124.549ZM210.586 124.514V124.549C210.586 124.624 210.591 124.694 210.602 124.759C210.615 124.824 210.634 124.881 210.661 124.932C210.689 124.981 210.725 125.019 210.768 125.047C210.813 125.074 210.867 125.087 210.931 125.087C211.014 125.087 211.082 125.069 211.135 125.032C211.189 124.994 211.23 124.942 211.258 124.876C211.287 124.81 211.304 124.734 211.308 124.648V124.429C211.305 124.358 211.295 124.295 211.278 124.239C211.262 124.182 211.239 124.134 211.207 124.093C211.177 124.053 211.139 124.022 211.093 124C211.049 123.977 210.996 123.966 210.934 123.966C210.872 123.966 210.818 123.981 210.773 124.01C210.729 124.038 210.692 124.076 210.664 124.125C210.637 124.174 210.617 124.233 210.604 124.3C210.592 124.366 210.586 124.437 210.586 124.514ZM212.716 122.994L212.661 124.688H212.259L212.202 122.994H212.716ZM212.188 125.213C212.188 125.142 212.213 125.082 212.262 125.035C212.312 124.987 212.378 124.963 212.46 124.963C212.543 124.963 212.608 124.987 212.658 125.035C212.707 125.082 212.731 125.142 212.731 125.213C212.731 125.282 212.707 125.341 212.658 125.389C212.608 125.437 212.543 125.461 212.46 125.461C212.378 125.461 212.312 125.437 212.262 125.389C212.213 125.341 212.188 125.282 212.188 125.213Z" fill="#333333"/>
<rect x="164.203" y="121.99" width="48.7922" height="4.90374" rx="2.45187" fill="#CED3D9"/>
<g filter="url(#filter3_d_47_1231)">
<path d="M160.807 155.52H235.357V162.386C235.357 162.928 234.918 163.367 234.376 163.367H161.788C161.246 163.367 160.807 162.928 160.807 162.386V155.52Z" fill="white"/>
</g>
<rect x="160.807" y="155.52" width="74.5503" height="0.245221" fill="#DAE2E6"/>
<rect x="184.223" y="157.716" width="27.7061" height="1.96149" rx="0.980747" fill="#CED3D9"/>
<defs>
<filter id="filter0_d_47_1231" x="75.6524" y="35.6132" width="83.3636" height="133.137" filterUnits="userSpaceOnUse" color-interpolation-filters="sRGB">
<feFlood flood-opacity="0" result="BackgroundImageFix"/>
<feColorMatrix in="SourceAlpha" type="matrix" values="0 0 0 0 0 0 0 0 0 0 0 0 0 0 0 0 0 0 127 0" result="hardAlpha"/>
<feOffset dy="1.96149"/>
<feGaussianBlur stdDeviation="1.96149"/>
<feColorMatrix type="matrix" values="0 0 0 0 0 0 0 0 0 0 0 0 0 0 0 0 0 0 0.12 0"/>
<feBlend mode="normal" in2="BackgroundImageFix" result="effect1_dropShadow_47_1231"/>
<feBlend mode="normal" in="SourceGraphic" in2="effect1_dropShadow_47_1231" result="shape"/>
</filter>
<filter id="filter1_d_47_1231" x="77.3687" y="152.322" width="79.9308" height="12.7497" filterUnits="userSpaceOnUse" color-interpolation-filters="sRGB">
<feFlood flood-opacity="0" result="BackgroundImageFix"/>
<feColorMatrix in="SourceAlpha" type="matrix" values="0 0 0 0 0 0 0 0 0 0 0 0 0 0 0 0 0 0 127 0" result="hardAlpha"/>
<feOffset/>
<feGaussianBlur stdDeviation="1.22593"/>
<feColorMatrix type="matrix" values="0 0 0 0 0 0 0 0 0 0 0 0 0 0 0 0 0 0 0.04 0"/>
<feBlend mode="normal" in2="BackgroundImageFix" result="effect1_dropShadow_47_1231"/>
<feBlend mode="normal" in="SourceGraphic" in2="effect1_dropShadow_47_1231" result="shape"/>
</filter>
<filter id="filter2_d_47_1231" x="156.64" y="114.814" width="82.8844" height="54.6842" filterUnits="userSpaceOnUse" color-interpolation-filters="sRGB">
<feFlood flood-opacity="0" result="BackgroundImageFix"/>
<feColorMatrix in="SourceAlpha" type="matrix" values="0 0 0 0 0 0 0 0 0 0 0 0 0 0 0 0 0 0 127 0" result="hardAlpha"/>
<feOffset dy="1.96177"/>
<feGaussianBlur stdDeviation="1.96177"/>
<feColorMatrix type="matrix" values="0 0 0 0 0 0 0 0 0 0 0 0 0 0 0 0 0 0 0.12 0"/>
<feBlend mode="normal" in2="BackgroundImageFix" result="effect1_dropShadow_47_1231"/>
<feBlend mode="normal" in="SourceGraphic" in2="effect1_dropShadow_47_1231" result="shape"/>
</filter>
<filter id="filter3_d_47_1231" x="158.354" y="153.068" width="79.4547" height="12.7515" filterUnits="userSpaceOnUse" color-interpolation-filters="sRGB">
<feFlood flood-opacity="0" result="BackgroundImageFix"/>
<feColorMatrix in="SourceAlpha" type="matrix" values="0 0 0 0 0 0 0 0 0 0 0 0 0 0 0 0 0 0 127 0" result="hardAlpha"/>
<feOffset/>
<feGaussianBlur stdDeviation="1.2261"/>
<feColorMatrix type="matrix" values="0 0 0 0 0 0 0 0 0 0 0 0 0 0 0 0 0 0 0.04 0"/>
<feBlend mode="normal" in2="BackgroundImageFix" result="effect1_dropShadow_47_1231"/>
<feBlend mode="normal" in="SourceGraphic" in2="effect1_dropShadow_47_1231" result="shape"/>
</filter>
<linearGradient id="paint0_linear_47_1231" x1="0.499992" y1="1.37293e-05" x2="306.5" y2="180" gradientUnits="userSpaceOnUse">
<stop stop-color="#403681"/>
<stop offset="1" stop-color="#0C063A"/>
</linearGradient>
</defs>
</svg>
