<svg width="320" height="176" viewBox="0 0 320 176" fill="none" xmlns="http://www.w3.org/2000/svg">
<path d="M0 12C0 5.37258 5.37258 0 12 0H308C314.627 0 320 5.37258 320 12V176H0V12Z" fill="url(#paint0_linear_25_652)"/>
<path d="M0 12C0 5.37258 5.37258 0 12 0H308C314.627 0 320 5.37258 320 12V176H0V12Z" stroke="white"/>
<g clip-path="url(#clip0_25_652)">
<path d="M32 52.7592C32 51.2353 33.2353 50 34.7592 50H283.241C284.765 50 286 51.2353 286 52.7592V176H32V52.7592Z" fill="white"/>
<g filter="url(#filter0_d_25_652)">
<g filter="url(#filter1_i_25_652)">
<rect width="254.283" height="13.5957" transform="translate(32 50)" fill="white"/>
<rect x="259.941" y="52.5492" width="25" height="8.49734" rx="4.24867" fill="#0875E1"/>
<path d="M266.052 56.9198H265.513V56.58H266.052C266.135 56.58 266.203 56.5665 266.255 56.5394C266.307 56.5113 266.346 56.4726 266.37 56.4232C266.394 56.3738 266.406 56.3181 266.406 56.2562C266.406 56.1933 266.394 56.1347 266.37 56.0805C266.346 56.0263 266.307 55.9827 266.255 55.9498C266.203 55.9169 266.135 55.9004 266.052 55.9004H265.664V57.6735H265.228V55.5591H266.052C266.217 55.5591 266.359 55.5892 266.477 55.6492C266.596 55.7082 266.687 55.79 266.75 55.8946C266.813 55.9992 266.845 56.1187 266.845 56.2533C266.845 56.3898 266.813 56.5079 266.75 56.6076C266.687 56.7073 266.596 56.7843 266.477 56.8385C266.359 56.8927 266.217 56.9198 266.052 56.9198ZM268.048 57.2974V56.1023H268.467V57.6735H268.073L268.048 57.2974ZM268.095 56.975L268.218 56.9721C268.218 57.0767 268.206 57.174 268.182 57.264C268.158 57.3531 268.122 57.4305 268.073 57.4963C268.025 57.5612 267.964 57.612 267.89 57.6488C267.817 57.6846 267.73 57.7026 267.63 57.7026C267.554 57.7026 267.483 57.6919 267.418 57.6706C267.354 57.6483 267.299 57.614 267.253 57.5675C267.207 57.5201 267.171 57.4596 267.145 57.386C267.12 57.3114 267.107 57.2219 267.107 57.1173V56.1023H267.526V57.1202C267.526 57.1667 267.531 57.2059 267.542 57.2379C267.553 57.2698 267.569 57.2959 267.59 57.3163C267.61 57.3366 267.634 57.3511 267.661 57.3598C267.689 57.3686 267.72 57.3729 267.754 57.3729C267.84 57.3729 267.908 57.3555 267.957 57.3206C268.007 57.2858 268.043 57.2383 268.063 57.1783C268.084 57.1173 268.095 57.0496 268.095 56.975ZM268.786 55.443H269.204V57.3134L269.162 57.6735H268.786V55.443ZM270.199 56.8719V56.9024C270.199 57.0195 270.187 57.127 270.161 57.2248C270.137 57.3226 270.099 57.4073 270.048 57.4789C269.997 57.5496 269.933 57.6048 269.856 57.6445C269.781 57.6832 269.692 57.7026 269.589 57.7026C269.493 57.7026 269.41 57.6832 269.339 57.6445C269.27 57.6057 269.211 57.551 269.164 57.4804C269.116 57.4097 269.078 57.3269 269.049 57.2321C269.02 57.1372 268.998 57.0336 268.984 56.9213V56.8545C268.998 56.7422 269.02 56.6386 269.049 56.5437C269.078 56.4488 269.116 56.3661 269.164 56.2954C269.211 56.2247 269.27 56.17 269.339 56.1313C269.409 56.0926 269.491 56.0732 269.586 56.0732C269.69 56.0732 269.78 56.0931 269.856 56.1328C269.934 56.1715 269.998 56.2267 270.048 56.2983C270.099 56.369 270.137 56.4532 270.161 56.551C270.187 56.6478 270.199 56.7548 270.199 56.8719ZM269.781 56.9024V56.8719C269.781 56.808 269.776 56.748 269.766 56.6918C269.758 56.6347 269.742 56.5849 269.72 56.5423C269.698 56.4987 269.667 56.4643 269.628 56.4392C269.591 56.414 269.542 56.4014 269.482 56.4014C269.425 56.4014 269.376 56.4111 269.337 56.4304C269.297 56.4498 269.264 56.4769 269.238 56.5118C269.213 56.5466 269.194 56.5883 269.181 56.6367C269.169 56.6841 269.161 56.7364 269.158 56.7935V56.9837C269.161 57.0602 269.173 57.128 269.196 57.187C269.219 57.2451 269.254 57.2911 269.3 57.325C269.348 57.3579 269.409 57.3744 269.485 57.3744C269.544 57.3744 269.593 57.3627 269.631 57.3395C269.67 57.3163 269.7 57.2834 269.721 57.2408C269.744 57.1982 269.759 57.1483 269.768 57.0912C269.777 57.0331 269.781 56.9702 269.781 56.9024ZM270.901 55.443V57.6735H270.481V55.443H270.901ZM271.688 56.1023V57.6735H271.268V56.1023H271.688ZM271.242 55.6927C271.242 55.6317 271.263 55.5814 271.306 55.5417C271.348 55.502 271.405 55.4822 271.477 55.4822C271.548 55.4822 271.604 55.502 271.647 55.5417C271.691 55.5814 271.712 55.6317 271.712 55.6927C271.712 55.7537 271.691 55.8041 271.647 55.8438C271.604 55.8835 271.548 55.9033 271.477 55.9033C271.405 55.9033 271.348 55.8835 271.306 55.8438C271.263 55.8041 271.242 55.7537 271.242 55.6927ZM272.883 57.2393C272.883 57.2093 272.874 57.1822 272.857 57.158C272.839 57.1338 272.807 57.1115 272.759 57.0912C272.713 57.0699 272.646 57.0505 272.557 57.0331C272.478 57.0157 272.404 56.9939 272.335 56.9678C272.268 56.9406 272.208 56.9082 272.158 56.8705C272.109 56.8327 272.07 56.7882 272.042 56.7369C272.014 56.6846 272 56.625 272 56.5582C272 56.4924 272.014 56.4304 272.042 56.3724C272.071 56.3143 272.112 56.263 272.165 56.2184C272.22 56.1729 272.285 56.1376 272.363 56.1124C272.441 56.0863 272.529 56.0732 272.627 56.0732C272.764 56.0732 272.881 56.095 272.979 56.1386C273.077 56.1821 273.153 56.2421 273.205 56.3186C273.258 56.3941 273.285 56.4803 273.285 56.5771H272.867C272.867 56.5365 272.858 56.5002 272.841 56.4682C272.824 56.4353 272.798 56.4096 272.762 56.3912C272.727 56.3719 272.682 56.3622 272.626 56.3622C272.579 56.3622 272.539 56.3704 272.505 56.3869C272.471 56.4024 272.445 56.4237 272.427 56.4508C272.409 56.4769 272.401 56.506 272.401 56.5379C272.401 56.5621 272.405 56.5839 272.415 56.6033C272.426 56.6217 272.443 56.6386 272.466 56.6541C272.489 56.6696 272.519 56.6841 272.556 56.6976C272.594 56.7102 272.64 56.7219 272.695 56.7325C272.809 56.7557 272.91 56.7862 272.999 56.824C273.088 56.8608 273.159 56.9111 273.211 56.975C273.263 57.0379 273.289 57.1207 273.289 57.2233C273.289 57.293 273.274 57.3569 273.243 57.415C273.212 57.4731 273.167 57.5239 273.109 57.5675C273.051 57.6101 272.982 57.6435 272.9 57.6677C272.82 57.6909 272.729 57.7026 272.629 57.7026C272.482 57.7026 272.359 57.6764 272.257 57.6241C272.156 57.5719 272.08 57.5055 272.027 57.4252C271.976 57.3439 271.95 57.2606 271.95 57.1754H272.347C272.349 57.2325 272.363 57.2785 272.39 57.3134C272.419 57.3482 272.454 57.3734 272.497 57.3889C272.54 57.4044 272.587 57.4121 272.637 57.4121C272.692 57.4121 272.737 57.4049 272.772 57.3903C272.808 57.3748 272.835 57.3545 272.854 57.3293C272.873 57.3032 272.883 57.2732 272.883 57.2393ZM273.969 55.443V57.6735H273.551V55.443H273.969ZM273.909 56.8327H273.795C273.796 56.7233 273.81 56.6226 273.838 56.5306C273.866 56.4377 273.907 56.3574 273.959 56.2896C274.011 56.2208 274.074 56.1676 274.146 56.1298C274.22 56.0921 274.301 56.0732 274.39 56.0732C274.468 56.0732 274.538 56.0843 274.601 56.1066C274.665 56.1279 274.719 56.1628 274.765 56.2112C274.811 56.2586 274.847 56.3211 274.872 56.3985C274.897 56.4759 274.91 56.5699 274.91 56.6802V57.6735H274.489V56.6773C274.489 56.6076 274.479 56.5529 274.458 56.5132C274.439 56.4726 274.41 56.444 274.373 56.4275C274.336 56.4101 274.29 56.4014 274.236 56.4014C274.176 56.4014 274.125 56.4125 274.082 56.4348C274.041 56.4571 274.007 56.4881 273.982 56.5277C273.957 56.5665 273.939 56.612 273.927 56.6642C273.915 56.7165 273.909 56.7727 273.909 56.8327Z" fill="white"/>
<path fill-rule="evenodd" clip-rule="evenodd" d="M43.352 55.3667C43.3928 55.3259 43.3932 55.2576 43.3514 55.2157L43.2026 55.0669C43.1589 55.0233 43.0931 55.0248 43.0516 55.0663L41.3993 56.7185C41.3791 56.7388 41.3688 56.7659 41.3687 56.7932C41.3679 56.8215 41.3787 56.8482 41.3993 56.8688L43.0516 58.5211C43.0923 58.5618 43.1607 58.5623 43.2026 58.5204L43.3514 58.3716C43.395 58.328 43.3935 58.2622 43.352 58.2207L42.1406 57.0092H44.6106C44.6685 57.0092 44.7169 56.9612 44.7169 56.902V56.6916C44.7169 56.6298 44.6693 56.5844 44.6106 56.5844H42.1343L43.352 55.3667Z" fill="#5E6A75"/>
<g clip-path="url(#clip1_25_652)">
<rect width="0.212433" height="8.07247" transform="translate(257.18 53.1864)" fill="white"/>
<rect x="257.18" y="53.1864" width="0.212433" height="8.07247" fill="#DFE2E6"/>
</g>
<path d="M231.794 52.6554H253.781C254.191 52.6554 254.524 52.9883 254.524 53.3989V60.1968C254.524 60.6074 254.191 60.9403 253.781 60.9403H231.794V52.6554Z" fill="white" stroke="#CED3D9" stroke-width="0.212433"/>
<path d="M209.807 52.6554H231.794V60.9403H209.807C209.396 60.9403 209.063 60.6074 209.063 60.1968V53.3989C209.063 52.9883 209.396 52.6554 209.807 52.6554Z" fill="#D7EAFC" stroke="#005CB9" stroke-width="0.212433"/>
<path fill-rule="evenodd" clip-rule="evenodd" d="M214.268 55.5233C212.993 55.5233 212.144 56.7979 212.144 56.7979C212.144 56.7979 212.993 58.0725 214.268 58.0725C215.542 58.0725 216.392 56.7979 216.392 56.7979C216.392 56.7979 215.542 55.5233 214.268 55.5233ZM214.268 55.9481C213.418 55.9481 212.675 56.7979 212.675 56.7979C212.675 56.7979 213.418 57.6476 214.268 57.6476C215.118 57.6476 215.861 56.7979 215.861 56.7979C215.861 56.7979 215.118 55.9481 214.268 55.9481Z" fill="#005CB9"/>
<path fill-rule="evenodd" clip-rule="evenodd" d="M213.737 56.7979C213.737 57.0912 213.975 57.329 214.268 57.329C214.561 57.329 214.799 57.0912 214.799 56.7979C214.799 56.5046 214.561 56.2668 214.268 56.2668C213.975 56.2668 213.737 56.5046 213.737 56.7979V56.7979Z" fill="#005CB9"/>
<path d="M219.529 56.9197H218.99V56.5798H219.529C219.612 56.5798 219.68 56.5663 219.732 56.5392C219.784 56.5111 219.823 56.4724 219.847 56.423C219.871 56.3736 219.883 56.318 219.883 56.256C219.883 56.1931 219.871 56.1345 219.847 56.0803C219.823 56.0261 219.784 55.9825 219.732 55.9496C219.68 55.9167 219.612 55.9002 219.529 55.9002H219.141V57.6733H218.705V55.559H219.529C219.694 55.559 219.836 55.589 219.954 55.649C220.073 55.7081 220.164 55.7899 220.227 55.8944C220.29 55.999 220.322 56.1185 220.322 56.2531C220.322 56.3896 220.29 56.5077 220.227 56.6074C220.164 56.7072 220.073 56.7841 219.954 56.8383C219.836 56.8926 219.694 56.9197 219.529 56.9197ZM221.014 56.4448V57.6733H220.596V56.1021H220.99L221.014 56.4448ZM221.488 56.0919L221.481 56.4796C221.46 56.4767 221.435 56.4743 221.406 56.4724C221.378 56.4695 221.353 56.468 221.329 56.468C221.27 56.468 221.219 56.4758 221.176 56.4913C221.133 56.5058 221.097 56.5276 221.068 56.5566C221.04 56.5857 221.019 56.621 221.004 56.6626C220.991 56.7043 220.983 56.7517 220.981 56.8049L220.897 56.7788C220.897 56.6771 220.907 56.5837 220.927 56.4985C220.948 56.4124 220.977 56.3373 221.016 56.2734C221.055 56.2095 221.104 56.1602 221.161 56.1253C221.218 56.0905 221.283 56.073 221.357 56.073C221.38 56.073 221.404 56.075 221.428 56.0788C221.452 56.0817 221.472 56.0861 221.488 56.0919ZM222.379 57.7024C222.257 57.7024 222.148 57.683 222.051 57.6443C221.954 57.6046 221.872 57.5499 221.804 57.4802C221.738 57.4105 221.686 57.3297 221.65 57.2377C221.615 57.1447 221.597 57.046 221.597 56.9414V56.8834C221.597 56.7643 221.614 56.6554 221.648 56.5566C221.681 56.4579 221.73 56.3722 221.793 56.2996C221.857 56.227 221.934 56.1713 222.025 56.1326C222.116 56.0929 222.219 56.073 222.333 56.073C222.444 56.073 222.543 56.0914 222.629 56.1282C222.715 56.165 222.787 56.2173 222.846 56.2851C222.905 56.3528 222.949 56.4341 222.979 56.529C223.009 56.6229 223.024 56.7275 223.024 56.8427V57.017H221.775V56.7381H222.613V56.7062C222.613 56.6481 222.603 56.5963 222.581 56.5508C222.561 56.5043 222.53 56.4675 222.488 56.4404C222.447 56.4133 222.393 56.3998 222.329 56.3998C222.273 56.3998 222.226 56.4119 222.186 56.4361C222.147 56.4603 222.114 56.4942 222.089 56.5377C222.065 56.5813 222.046 56.6326 222.034 56.6917C222.022 56.7498 222.016 56.8136 222.016 56.8834V56.9414C222.016 57.0044 222.025 57.0625 222.042 57.1157C222.061 57.1689 222.087 57.2149 222.119 57.2537C222.153 57.2924 222.194 57.3224 222.241 57.3437C222.29 57.365 222.345 57.3756 222.406 57.3756C222.481 57.3756 222.551 57.3611 222.616 57.3321C222.682 57.3021 222.739 57.257 222.786 57.197L222.989 57.4178C222.956 57.4652 222.911 57.5107 222.854 57.5543C222.798 57.5978 222.73 57.6336 222.651 57.6617C222.572 57.6888 222.481 57.7024 222.379 57.7024ZM223.776 57.3684L224.125 56.1021H224.562L224.032 57.6733H223.768L223.776 57.3684ZM223.537 56.1021L223.887 57.3698L223.894 57.6733H223.628L223.098 56.1021H223.537ZM225.191 56.1021V57.6733H224.771V56.1021H225.191ZM224.745 55.6926C224.745 55.6316 224.766 55.5812 224.809 55.5415C224.852 55.5018 224.909 55.482 224.98 55.482C225.051 55.482 225.108 55.5018 225.15 55.5415C225.194 55.5812 225.216 55.6316 225.216 55.6926C225.216 55.7536 225.194 55.8039 225.15 55.8436C225.108 55.8833 225.051 55.9031 224.98 55.9031C224.909 55.9031 224.852 55.8833 224.809 55.8436C224.766 55.8039 224.745 55.7536 224.745 55.6926ZM226.26 57.7024C226.138 57.7024 226.028 57.683 225.931 57.6443C225.835 57.6046 225.752 57.5499 225.685 57.4802C225.618 57.4105 225.566 57.3297 225.531 57.2377C225.495 57.1447 225.477 57.046 225.477 56.9414V56.8834C225.477 56.7643 225.494 56.6554 225.528 56.5566C225.562 56.4579 225.61 56.3722 225.673 56.2996C225.737 56.227 225.814 56.1713 225.905 56.1326C225.996 56.0929 226.099 56.073 226.213 56.073C226.324 56.073 226.423 56.0914 226.509 56.1282C226.596 56.165 226.668 56.2173 226.726 56.2851C226.785 56.3528 226.829 56.4341 226.859 56.529C226.889 56.6229 226.904 56.7275 226.904 56.8427V57.017H225.656V56.7381H226.493V56.7062C226.493 56.6481 226.483 56.5963 226.461 56.5508C226.441 56.5043 226.41 56.4675 226.369 56.4404C226.327 56.4133 226.274 56.3998 226.209 56.3998C226.154 56.3998 226.106 56.4119 226.066 56.4361C226.027 56.4603 225.994 56.4942 225.969 56.5377C225.945 56.5813 225.927 56.6326 225.914 56.6917C225.902 56.7498 225.897 56.8136 225.897 56.8834V56.9414C225.897 57.0044 225.905 57.0625 225.923 57.1157C225.941 57.1689 225.967 57.2149 226 57.2537C226.034 57.2924 226.074 57.3224 226.122 57.3437C226.17 57.365 226.225 57.3756 226.286 57.3756C226.361 57.3756 226.431 57.3611 226.496 57.3321C226.562 57.3021 226.619 57.257 226.666 57.197L226.87 57.4178C226.837 57.4652 226.792 57.5107 226.734 57.5543C226.678 57.5978 226.611 57.6336 226.531 57.6617C226.452 57.6888 226.361 57.7024 226.26 57.7024ZM227.591 57.2667L227.918 56.1021H228.184L228.098 56.5595L227.771 57.6733H227.549L227.591 57.2667ZM227.426 56.1021L227.66 57.2653L227.681 57.6733H227.42L227.022 56.1021H227.426ZM228.483 57.2464L228.711 56.1021H229.116L228.718 57.6733H228.458L228.483 57.2464ZM228.22 56.1021L228.545 57.258L228.59 57.6733H228.367L228.04 56.561L227.957 56.1021H228.22Z" fill="#005CB9"/>
<path fill-rule="evenodd" clip-rule="evenodd" d="M239.345 56.0436L237.62 57.7679L237.635 58.0535L237.921 58.0683L239.645 56.344L239.345 56.0436ZM239.645 55.7431L239.945 56.0436L240.246 55.7431L239.945 55.4427L239.645 55.7431ZM237.214 57.6773C237.214 57.6196 237.248 57.5393 237.288 57.4991L239.87 54.9169C239.912 54.8754 239.98 54.8761 240.019 54.9156L240.773 55.6694C240.814 55.7101 240.813 55.7772 240.772 55.8181L238.19 58.4004C238.149 58.4411 238.068 58.4744 238.011 58.4747L237.317 58.4782C237.258 58.4785 237.21 58.43 237.21 58.3712L237.214 57.6773Z" fill="#7B858F"/>
<path d="M244.758 57.3843V57.6733H243.635V57.3843H244.758ZM243.738 55.5589V57.6733H243.374V55.5589H243.738ZM244.611 56.4419V56.7265H243.635V56.4419H244.611ZM244.75 55.5589V55.8494H243.635V55.5589H244.75ZM246.001 57.348V55.4428H246.352V57.6733H246.034L246.001 57.348ZM244.978 56.9051V56.8746C244.978 56.7555 244.992 56.6471 245.021 56.5493C245.049 56.4506 245.089 56.3659 245.143 56.2952C245.196 56.2236 245.261 56.1689 245.337 56.1311C245.414 56.0924 245.5 56.073 245.596 56.073C245.69 56.073 245.774 56.0914 245.845 56.1282C245.917 56.165 245.978 56.2177 246.028 56.2865C246.079 56.3543 246.119 56.4356 246.149 56.5305C246.179 56.6244 246.2 56.7289 246.213 56.8441V56.9414C246.2 57.0537 246.179 57.1563 246.149 57.2493C246.119 57.3422 246.079 57.4226 246.028 57.4903C245.978 57.5581 245.917 57.6104 245.844 57.6472C245.772 57.684 245.689 57.7024 245.593 57.7024C245.498 57.7024 245.412 57.6825 245.336 57.6428C245.26 57.6031 245.196 57.5475 245.143 57.4758C245.089 57.4042 245.049 57.32 245.021 57.2231C244.992 57.1254 244.978 57.0194 244.978 56.9051ZM245.328 56.8746V56.9051C245.328 56.9768 245.335 57.0436 245.347 57.1055C245.361 57.1675 245.382 57.2222 245.41 57.2696C245.438 57.3161 245.474 57.3529 245.519 57.38C245.564 57.4061 245.618 57.4192 245.681 57.4192C245.761 57.4192 245.826 57.4018 245.877 57.3669C245.929 57.3321 245.969 57.2851 245.998 57.226C246.028 57.166 246.048 57.0992 246.059 57.0256V56.7628C246.053 56.7057 246.041 56.6524 246.023 56.6031C246.005 56.5537 245.981 56.5106 245.951 56.4738C245.921 56.4361 245.884 56.407 245.84 56.3867C245.796 56.3654 245.744 56.3547 245.684 56.3547C245.62 56.3547 245.566 56.3683 245.522 56.3954C245.477 56.4225 245.44 56.4598 245.411 56.5072C245.383 56.5547 245.362 56.6098 245.349 56.6728C245.335 56.7357 245.328 56.803 245.328 56.8746ZM247.144 56.1021V57.6733H246.792V56.1021H247.144ZM246.769 55.6896C246.769 55.6364 246.787 55.5923 246.821 55.5575C246.857 55.5217 246.907 55.5038 246.97 55.5038C247.031 55.5038 247.08 55.5217 247.116 55.5575C247.152 55.5923 247.17 55.6364 247.17 55.6896C247.17 55.7419 247.152 55.7855 247.116 55.8203C247.08 55.8552 247.031 55.8726 246.97 55.8726C246.907 55.8726 246.857 55.8552 246.821 55.8203C246.787 55.7855 246.769 55.7419 246.769 55.6896ZM248.298 56.1021V56.3576H247.413V56.1021H248.298ZM247.668 55.7172H248.018V57.2391C248.018 57.2875 248.025 57.3248 248.038 57.3509C248.053 57.3761 248.073 57.393 248.098 57.4018C248.123 57.4105 248.153 57.4148 248.187 57.4148C248.211 57.4148 248.234 57.4134 248.256 57.4105C248.279 57.4076 248.296 57.4047 248.31 57.4018L248.312 57.669C248.282 57.6777 248.249 57.6854 248.21 57.6922C248.172 57.699 248.129 57.7024 248.079 57.7024C247.999 57.7024 247.928 57.6883 247.866 57.6602C247.804 57.6312 247.755 57.5842 247.72 57.5194C247.686 57.4545 247.668 57.3684 247.668 57.2609V55.7172Z" fill="#494949"/>
<rect x="49.4199" y="53.8238" width="45.2483" height="5.52327" rx="2.76163" fill="#889AAA"/>
<rect x="40.2852" y="54.0361" width="5.52327" height="5.52327" rx="0.849734" fill="#889AAA"/>
<path d="M208.745 53.3989C208.745 52.9296 209.125 52.5492 209.594 52.5492H231.687V61.0465H209.594C209.125 61.0465 208.745 60.6661 208.745 60.1968V53.3989Z" fill="#889AAA"/>
<path d="M254.63 60.1968C254.63 60.6661 254.249 61.0465 253.78 61.0465L231.687 61.0465L231.687 52.5492L253.78 52.5492C254.249 52.5492 254.63 52.9296 254.63 53.3989L254.63 60.1968Z" fill="#CED3D9"/>
<path d="M284.583 56.7978C284.583 59.1443 282.681 61.0465 280.335 61.0465L264.19 61.0465C261.843 61.0465 259.941 59.1443 259.941 56.7978V56.7978C259.941 54.4514 261.843 52.5492 264.19 52.5492L280.335 52.5492C282.681 52.5492 284.583 54.4514 284.583 56.7978V56.7978Z" fill="#889AAA"/>
</g>
</g>
<rect x="275.023" y="70.3936" width="9.13464" height="9.13464" rx="0.849734" fill="#CED3D9"/>
<rect opacity="0.75" x="275.023" y="82.0774" width="9.13464" height="9.13464" rx="0.849734" fill="#CED3D9"/>
<rect opacity="0.5" x="275.023" y="93.7614" width="9.13464" height="9.13464" rx="0.849734" fill="#CED3D9"/>
<g clip-path="url(#clip2_25_652)" filter="url(#filter2_d_25_652)">
<rect width="235.376" height="162.299" transform="translate(34.5493 66.3574)" fill="#F0F1F2"/>
<g filter="url(#filter3_d_25_652)">
<rect x="58.5542" y="83.7768" width="187.366" height="128.947" rx="1.69947" fill="white"/>
</g>
<rect x="68.8572" y="104.064" width="75.7876" height="8.2849" rx="0.743517" fill="white" stroke="#7B858F" stroke-width="0.212433"/>
<path d="M71.823 108.548C71.823 108.499 71.8153 108.455 71.7998 108.417C71.7852 108.378 71.7591 108.344 71.7213 108.313C71.6846 108.282 71.6332 108.252 71.5674 108.224C71.5025 108.196 71.4203 108.167 71.3205 108.138C71.216 108.107 71.1216 108.073 71.0374 108.035C70.9531 107.997 70.881 107.953 70.821 107.903C70.761 107.854 70.715 107.797 70.683 107.733C70.6511 107.669 70.6351 107.596 70.6351 107.514C70.6351 107.432 70.6521 107.356 70.6859 107.286C70.7198 107.216 70.7682 107.156 70.8312 107.104C70.8951 107.052 70.971 107.011 71.0591 106.982C71.1472 106.953 71.2455 106.939 71.3539 106.939C71.5127 106.939 71.6473 106.969 71.7576 107.03C71.869 107.09 71.9537 107.169 72.0118 107.267C72.0699 107.364 72.0989 107.467 72.0989 107.578H71.8201C71.8201 107.498 71.8031 107.428 71.7693 107.367C71.7354 107.305 71.6841 107.257 71.6153 107.222C71.5466 107.186 71.4595 107.168 71.3539 107.168C71.2542 107.168 71.1719 107.183 71.1071 107.213C71.0422 107.243 70.9938 107.284 70.9619 107.335C70.9309 107.387 70.9154 107.445 70.9154 107.511C70.9154 107.556 70.9246 107.596 70.943 107.633C70.9623 107.669 70.9919 107.702 71.0316 107.733C71.0722 107.764 71.1235 107.793 71.1855 107.819C71.2484 107.845 71.3234 107.87 71.4106 107.894C71.5306 107.928 71.6342 107.966 71.7213 108.008C71.8085 108.049 71.8801 108.096 71.9363 108.149C71.9934 108.2 72.0355 108.258 72.0626 108.324C72.0907 108.389 72.1047 108.463 72.1047 108.545C72.1047 108.631 72.0873 108.709 72.0524 108.779C72.0176 108.849 71.9677 108.908 71.9029 108.957C71.838 109.007 71.7601 109.045 71.6691 109.072C71.579 109.098 71.4783 109.111 71.367 109.111C71.2692 109.111 71.1729 109.098 71.078 109.071C70.9841 109.044 70.8984 109.003 70.821 108.949C70.7445 108.894 70.683 108.828 70.6366 108.748C70.5911 108.668 70.5683 108.575 70.5683 108.469H70.8471C70.8471 108.542 70.8612 108.605 70.8892 108.657C70.9173 108.708 70.9556 108.751 71.004 108.785C71.0533 108.818 71.109 108.844 71.171 108.86C71.2339 108.876 71.2992 108.883 71.367 108.883C71.4648 108.883 71.5476 108.87 71.6153 108.843C71.6831 108.816 71.7344 108.777 71.7693 108.727C71.8051 108.676 71.823 108.617 71.823 108.548ZM73.1243 109.111C73.0149 109.111 72.9157 109.093 72.8266 109.056C72.7385 109.018 72.6625 108.966 72.5986 108.898C72.5357 108.83 72.4873 108.75 72.4534 108.657C72.4195 108.564 72.4026 108.462 72.4026 108.352V108.291C72.4026 108.163 72.4215 108.049 72.4592 107.95C72.497 107.849 72.5483 107.764 72.6131 107.694C72.678 107.624 72.7516 107.572 72.8339 107.536C72.9162 107.5 73.0014 107.482 73.0895 107.482C73.2018 107.482 73.2986 107.501 73.3799 107.54C73.4622 107.579 73.5295 107.633 73.5817 107.703C73.634 107.771 73.6727 107.853 73.6979 107.947C73.7231 108.04 73.7357 108.141 73.7357 108.252V108.372H72.5623V108.153H73.467V108.133C73.4631 108.063 73.4486 107.995 73.4235 107.929C73.3993 107.863 73.3605 107.809 73.3073 107.767C73.254 107.724 73.1814 107.703 73.0895 107.703C73.0285 107.703 72.9723 107.716 72.921 107.742C72.8697 107.767 72.8256 107.805 72.7889 107.855C72.7521 107.906 72.7235 107.967 72.7032 108.04C72.6828 108.112 72.6727 108.196 72.6727 108.291V108.352C72.6727 108.426 72.6828 108.497 72.7032 108.562C72.7245 108.627 72.755 108.684 72.7947 108.734C72.8353 108.783 72.8842 108.822 72.9413 108.85C72.9994 108.878 73.0653 108.892 73.1388 108.892C73.2337 108.892 73.3141 108.873 73.3799 108.834C73.4457 108.795 73.5033 108.743 73.5527 108.679L73.7153 108.808C73.6815 108.859 73.6384 108.908 73.5861 108.955C73.5338 109.001 73.4694 109.039 73.393 109.068C73.3174 109.097 73.2279 109.111 73.1243 109.111ZM74.3922 106.852V109.082H74.1221V106.852H74.3922ZM75.5265 109.111C75.4171 109.111 75.3179 109.093 75.2288 109.056C75.1407 109.018 75.0647 108.966 75.0008 108.898C74.9379 108.83 74.8895 108.75 74.8556 108.657C74.8217 108.564 74.8048 108.462 74.8048 108.352V108.291C74.8048 108.163 74.8237 108.049 74.8614 107.95C74.8992 107.849 74.9505 107.764 75.0154 107.694C75.0802 107.624 75.1538 107.572 75.2361 107.536C75.3184 107.5 75.4036 107.482 75.4917 107.482C75.604 107.482 75.7008 107.501 75.7821 107.54C75.8644 107.579 75.9317 107.633 75.984 107.703C76.0362 107.771 76.075 107.853 76.1001 107.947C76.1253 108.04 76.1379 108.141 76.1379 108.252V108.372H74.9645V108.153H75.8692V108.133C75.8654 108.063 75.8509 107.995 75.8257 107.929C75.8015 107.863 75.7628 107.809 75.7095 107.767C75.6563 107.724 75.5836 107.703 75.4917 107.703C75.4307 107.703 75.3745 107.716 75.3232 107.742C75.2719 107.767 75.2279 107.805 75.1911 107.855C75.1543 107.906 75.1257 107.967 75.1054 108.04C75.0851 108.112 75.0749 108.196 75.0749 108.291V108.352C75.0749 108.426 75.0851 108.497 75.1054 108.562C75.1267 108.627 75.1572 108.684 75.1969 108.734C75.2375 108.783 75.2864 108.822 75.3436 108.85C75.4016 108.878 75.4675 108.892 75.5411 108.892C75.6359 108.892 75.7163 108.873 75.7821 108.834C75.8479 108.795 75.9055 108.743 75.9549 108.679L76.1176 108.808C76.0837 108.859 76.0406 108.908 75.9883 108.955C75.936 109.001 75.8717 109.039 75.7952 109.068C75.7197 109.097 75.6301 109.111 75.5265 109.111ZM77.1313 108.891C77.1952 108.891 77.2543 108.878 77.3085 108.851C77.3627 108.825 77.4073 108.789 77.4421 108.744C77.477 108.697 77.4968 108.645 77.5017 108.586H77.7572C77.7524 108.679 77.7209 108.765 77.6628 108.846C77.6057 108.925 77.5307 108.989 77.4378 109.039C77.3448 109.087 77.2427 109.111 77.1313 109.111C77.0132 109.111 76.9101 109.091 76.822 109.049C76.7349 109.007 76.6623 108.95 76.6042 108.878C76.5471 108.805 76.504 108.722 76.475 108.628C76.4469 108.533 76.4328 108.433 76.4328 108.327V108.266C76.4328 108.161 76.4469 108.061 76.475 107.967C76.504 107.872 76.5471 107.788 76.6042 107.716C76.6623 107.643 76.7349 107.586 76.822 107.544C76.9101 107.503 77.0132 107.482 77.1313 107.482C77.2543 107.482 77.3618 107.507 77.4537 107.558C77.5457 107.607 77.6178 107.675 77.6701 107.761C77.7234 107.846 77.7524 107.943 77.7572 108.051H77.5017C77.4968 107.986 77.4784 107.928 77.4465 107.876C77.4155 107.823 77.3729 107.782 77.3187 107.751C77.2654 107.719 77.203 107.703 77.1313 107.703C77.0491 107.703 76.9798 107.719 76.9237 107.752C76.8685 107.784 76.8245 107.828 76.7915 107.883C76.7596 107.937 76.7364 107.998 76.7218 108.064C76.7083 108.13 76.7015 108.197 76.7015 108.266V108.327C76.7015 108.396 76.7083 108.464 76.7218 108.53C76.7354 108.597 76.7581 108.658 76.7901 108.712C76.823 108.766 76.8671 108.81 76.9222 108.843C76.9784 108.875 77.0481 108.891 77.1313 108.891ZM78.7681 107.511V107.717H77.9186V107.511H78.7681ZM78.2061 107.129H78.4748V108.693C78.4748 108.746 78.483 108.787 78.4995 108.814C78.5159 108.841 78.5372 108.859 78.5634 108.867C78.5895 108.876 78.6176 108.88 78.6476 108.88C78.6699 108.88 78.6931 108.879 78.7173 108.875C78.7425 108.87 78.7613 108.866 78.7739 108.863L78.7754 109.082C78.7541 109.089 78.726 109.095 78.6911 109.101C78.6573 109.108 78.6161 109.111 78.5677 109.111C78.5019 109.111 78.4414 109.098 78.3862 109.072C78.331 109.046 78.287 109.002 78.254 108.941C78.2221 108.879 78.2061 108.796 78.2061 108.692V107.129ZM80.5517 108.891C80.6156 108.891 80.6747 108.878 80.7289 108.851C80.7831 108.825 80.8276 108.789 80.8625 108.744C80.8973 108.697 80.9172 108.645 80.922 108.586H81.1776C81.1728 108.679 81.1413 108.765 81.0832 108.846C81.0261 108.925 80.9511 108.989 80.8581 109.039C80.7652 109.087 80.663 109.111 80.5517 109.111C80.4336 109.111 80.3305 109.091 80.2424 109.049C80.1553 109.007 80.0827 108.95 80.0246 108.878C79.9674 108.805 79.9244 108.722 79.8953 108.628C79.8672 108.533 79.8532 108.433 79.8532 108.327V108.266C79.8532 108.161 79.8672 108.061 79.8953 107.967C79.9244 107.872 79.9674 107.788 80.0246 107.716C80.0827 107.643 80.1553 107.586 80.2424 107.544C80.3305 107.503 80.4336 107.482 80.5517 107.482C80.6747 107.482 80.7821 107.507 80.8741 107.558C80.9661 107.607 81.0382 107.675 81.0905 107.761C81.1437 107.846 81.1728 107.943 81.1776 108.051H80.922C80.9172 107.986 80.8988 107.928 80.8668 107.876C80.8359 107.823 80.7933 107.782 80.739 107.751C80.6858 107.719 80.6234 107.703 80.5517 107.703C80.4694 107.703 80.4002 107.719 80.344 107.752C80.2889 107.784 80.2448 107.828 80.2119 107.883C80.18 107.937 80.1567 107.998 80.1422 108.064C80.1286 108.13 80.1219 108.197 80.1219 108.266V108.327C80.1219 108.396 80.1286 108.464 80.1422 108.53C80.1557 108.597 80.1785 108.658 80.2104 108.712C80.2434 108.766 80.2874 108.81 80.3426 108.843C80.3987 108.875 80.4685 108.891 80.5517 108.891ZM82.4571 108.814V108.005C82.4571 107.943 82.4445 107.889 82.4194 107.844C82.3952 107.797 82.3584 107.761 82.309 107.736C82.2596 107.711 82.1986 107.698 82.126 107.698C82.0583 107.698 81.9987 107.71 81.9474 107.733C81.8971 107.756 81.8574 107.787 81.8283 107.825C81.8003 107.862 81.7862 107.903 81.7862 107.947H81.5176C81.5176 107.891 81.5321 107.835 81.5611 107.78C81.5902 107.725 81.6318 107.675 81.686 107.63C81.7412 107.585 81.807 107.549 81.8835 107.523C81.961 107.496 82.0471 107.482 82.142 107.482C82.2562 107.482 82.3569 107.501 82.4441 107.54C82.5322 107.579 82.6009 107.637 82.6503 107.716C82.7006 107.793 82.7258 107.891 82.7258 108.008V108.74C82.7258 108.792 82.7301 108.848 82.7389 108.907C82.7485 108.966 82.7626 109.016 82.781 109.059V109.082H82.5007C82.4871 109.051 82.4765 109.01 82.4687 108.959C82.461 108.907 82.4571 108.858 82.4571 108.814ZM82.5036 108.13L82.5065 108.318H82.2349C82.1585 108.318 82.0902 108.325 82.0302 108.337C81.9702 108.349 81.9198 108.367 81.8792 108.391C81.8385 108.415 81.8075 108.446 81.7862 108.483C81.7649 108.518 81.7543 108.56 81.7543 108.609C81.7543 108.658 81.7654 108.703 81.7877 108.744C81.8099 108.785 81.8433 108.817 81.8879 108.841C81.9334 108.864 81.989 108.876 82.0549 108.876C82.1372 108.876 82.2098 108.859 82.2727 108.824C82.3356 108.789 82.3855 108.746 82.4223 108.696C82.46 108.646 82.4804 108.597 82.4833 108.549L82.598 108.679C82.5912 108.719 82.5728 108.764 82.5428 108.814C82.5128 108.863 82.4726 108.91 82.4223 108.956C82.3729 109.001 82.3138 109.038 82.2451 109.068C82.1773 109.097 82.1009 109.111 82.0157 109.111C81.9092 109.111 81.8157 109.091 81.7354 109.049C81.656 109.007 81.594 108.952 81.5495 108.882C81.506 108.811 81.4842 108.732 81.4842 108.645C81.4842 108.561 81.5006 108.487 81.5335 108.423C81.5665 108.358 81.6139 108.304 81.6759 108.262C81.7378 108.218 81.8124 108.185 81.8995 108.163C81.9866 108.141 82.0839 108.13 82.1914 108.13H82.5036ZM84.1142 108.666C84.1142 108.627 84.1055 108.591 84.0881 108.558C84.0716 108.524 84.0373 108.494 83.985 108.467C83.9337 108.439 83.8562 108.414 83.7526 108.394C83.6655 108.376 83.5866 108.354 83.5159 108.329C83.4462 108.303 83.3867 108.273 83.3373 108.237C83.2889 108.201 83.2516 108.159 83.2255 108.111C83.1994 108.062 83.1863 108.006 83.1863 107.941C83.1863 107.879 83.1998 107.82 83.2269 107.765C83.255 107.71 83.2942 107.661 83.3446 107.619C83.3959 107.576 83.4574 107.543 83.529 107.518C83.6006 107.494 83.6805 107.482 83.7686 107.482C83.8945 107.482 84.0019 107.504 84.091 107.549C84.1801 107.593 84.2483 107.653 84.2957 107.727C84.3432 107.801 84.3669 107.883 84.3669 107.973H84.0983C84.0983 107.929 84.0852 107.887 84.059 107.847C84.0339 107.805 83.9966 107.771 83.9472 107.743C83.8988 107.716 83.8393 107.703 83.7686 107.703C83.6941 107.703 83.6336 107.714 83.5871 107.738C83.5416 107.76 83.5082 107.788 83.4869 107.823C83.4666 107.858 83.4564 107.895 83.4564 107.934C83.4564 107.963 83.4612 107.989 83.4709 108.012C83.4816 108.034 83.5 108.055 83.5261 108.074C83.5522 108.093 83.589 108.11 83.6365 108.127C83.6839 108.143 83.7444 108.16 83.818 108.176C83.9467 108.205 84.0527 108.24 84.136 108.281C84.2193 108.321 84.2812 108.371 84.3219 108.43C84.3625 108.489 84.3829 108.561 84.3829 108.645C84.3829 108.714 84.3684 108.777 84.3393 108.834C84.3112 108.891 84.2701 108.94 84.2159 108.982C84.1626 109.023 84.0987 109.055 84.0242 109.078C83.9506 109.1 83.8678 109.111 83.7759 109.111C83.6374 109.111 83.5203 109.087 83.4244 109.037C83.3286 108.988 83.256 108.924 83.2066 108.846C83.1572 108.767 83.1326 108.684 83.1326 108.597H83.4027C83.4065 108.671 83.4278 108.729 83.4666 108.773C83.5053 108.816 83.5527 108.846 83.6089 108.864C83.665 108.882 83.7207 108.891 83.7759 108.891C83.8494 108.891 83.9109 108.881 83.9603 108.862C84.0106 108.842 84.0489 108.816 84.075 108.782C84.1012 108.748 84.1142 108.709 84.1142 108.666ZM85.4388 109.111C85.3294 109.111 85.2301 109.093 85.1411 109.056C85.053 109.018 84.977 108.966 84.9131 108.898C84.8502 108.83 84.8017 108.75 84.7679 108.657C84.734 108.564 84.717 108.462 84.717 108.352V108.291C84.717 108.163 84.7359 108.049 84.7737 107.95C84.8114 107.849 84.8627 107.764 84.9276 107.694C84.9925 107.624 85.066 107.572 85.1483 107.536C85.2306 107.5 85.3158 107.482 85.4039 107.482C85.5162 107.482 85.613 107.501 85.6944 107.54C85.7766 107.579 85.8439 107.633 85.8962 107.703C85.9485 107.771 85.9872 107.853 86.0124 107.947C86.0376 108.04 86.0501 108.141 86.0501 108.252V108.372H84.8768V108.153H85.7815V108.133C85.7776 108.063 85.7631 107.995 85.7379 107.929C85.7137 107.863 85.675 107.809 85.6217 107.767C85.5685 107.724 85.4959 107.703 85.4039 107.703C85.3429 107.703 85.2868 107.716 85.2355 107.742C85.1842 107.767 85.1401 107.805 85.1033 107.855C85.0665 107.906 85.038 107.967 85.0176 108.04C84.9973 108.112 84.9871 108.196 84.9871 108.291V108.352C84.9871 108.426 84.9973 108.497 85.0176 108.562C85.0389 108.627 85.0694 108.684 85.1091 108.734C85.1498 108.783 85.1987 108.822 85.2558 108.85C85.3139 108.878 85.3797 108.892 85.4533 108.892C85.5482 108.892 85.6285 108.873 85.6944 108.834C85.7602 108.795 85.8178 108.743 85.8672 108.679L86.0298 108.808C85.9959 108.859 85.9528 108.908 85.9006 108.955C85.8483 109.001 85.7839 109.039 85.7074 109.068C85.6319 109.097 85.5424 109.111 85.4388 109.111ZM87.8613 107.511V107.717H87.0118V107.511H87.8613ZM87.2993 107.129H87.568V108.693C87.568 108.746 87.5762 108.787 87.5927 108.814C87.6091 108.841 87.6304 108.859 87.6566 108.867C87.6827 108.876 87.7108 108.88 87.7408 108.88C87.7631 108.88 87.7863 108.879 87.8105 108.875C87.8357 108.87 87.8546 108.866 87.8671 108.863L87.8686 109.082C87.8473 109.089 87.8192 109.095 87.7844 109.101C87.7505 109.108 87.7093 109.111 87.6609 109.111C87.5951 109.111 87.5346 109.098 87.4794 109.072C87.4242 109.046 87.3802 109.002 87.3473 108.941C87.3153 108.879 87.2993 108.796 87.2993 108.692V107.129ZM88.6689 108.92L89.106 107.511H89.3935L88.7633 109.325C88.7488 109.364 88.7294 109.405 88.7052 109.45C88.682 109.495 88.652 109.538 88.6152 109.579C88.5784 109.62 88.5338 109.653 88.4816 109.678C88.4303 109.704 88.3688 109.717 88.2971 109.717C88.2758 109.717 88.2487 109.714 88.2158 109.708C88.1829 109.702 88.1597 109.698 88.1461 109.694L88.1447 109.476C88.1524 109.477 88.1645 109.478 88.181 109.479C88.1984 109.481 88.2105 109.482 88.2173 109.482C88.2783 109.482 88.3301 109.473 88.3727 109.457C88.4152 109.441 88.4511 109.415 88.4801 109.377C88.5101 109.34 88.5358 109.289 88.5571 109.225L88.6689 108.92ZM88.348 107.511L88.756 108.731L88.8257 109.014L88.6326 109.113L88.0546 107.511H88.348ZM89.9557 107.813V109.686H89.6856V107.511H89.9325L89.9557 107.813ZM91.0143 108.284V108.314C91.0143 108.428 91.0008 108.534 90.9737 108.632C90.9466 108.729 90.9069 108.813 90.8546 108.885C90.8033 108.956 90.7399 109.012 90.6644 109.052C90.5888 109.092 90.5022 109.111 90.4044 109.111C90.3047 109.111 90.2166 109.095 90.1401 109.062C90.0636 109.029 89.9988 108.981 89.9455 108.918C89.8923 108.855 89.8497 108.78 89.8177 108.692C89.7868 108.604 89.7655 108.504 89.7538 108.394V108.231C89.7655 108.115 89.7872 108.011 89.8192 107.919C89.8511 107.827 89.8932 107.749 89.9455 107.684C89.9988 107.618 90.0631 107.568 90.1387 107.534C90.2142 107.499 90.3013 107.482 90.4001 107.482C90.4988 107.482 90.5864 107.501 90.6629 107.54C90.7394 107.578 90.8038 107.632 90.856 107.703C90.9083 107.773 90.9475 107.858 90.9737 107.957C91.0008 108.055 91.0143 108.164 91.0143 108.284ZM90.7442 108.314V108.284C90.7442 108.205 90.736 108.132 90.7195 108.063C90.7031 107.993 90.6774 107.932 90.6426 107.88C90.6087 107.827 90.5651 107.785 90.5119 107.755C90.4586 107.724 90.3952 107.709 90.3216 107.709C90.2539 107.709 90.1948 107.72 90.1445 107.743C90.0951 107.767 90.053 107.798 90.0181 107.838C89.9833 107.877 89.9547 107.921 89.9325 107.971C89.9112 108.021 89.8952 108.072 89.8845 108.125V108.501C89.9039 108.569 89.931 108.633 89.9659 108.693C90.0007 108.752 90.0472 108.8 90.1053 108.837C90.1634 108.873 90.2364 108.891 90.3245 108.891C90.3972 108.891 90.4596 108.876 90.5119 108.846C90.5651 108.815 90.6087 108.773 90.6426 108.719C90.6774 108.666 90.7031 108.605 90.7195 108.536C90.736 108.467 90.7442 108.393 90.7442 108.314ZM92.0601 109.111C91.9507 109.111 91.8514 109.093 91.7624 109.056C91.6743 109.018 91.5983 108.966 91.5344 108.898C91.4714 108.83 91.423 108.75 91.3891 108.657C91.3553 108.564 91.3383 108.462 91.3383 108.352V108.291C91.3383 108.163 91.3572 108.049 91.395 107.95C91.4327 107.849 91.484 107.764 91.5489 107.694C91.6138 107.624 91.6873 107.572 91.7696 107.536C91.8519 107.5 91.9371 107.482 92.0252 107.482C92.1375 107.482 92.2343 107.501 92.3156 107.54C92.3979 107.579 92.4652 107.633 92.5175 107.703C92.5698 107.771 92.6085 107.853 92.6337 107.947C92.6588 108.04 92.6714 108.141 92.6714 108.252V108.372H91.4981V108.153H92.4028V108.133C92.3989 108.063 92.3844 107.995 92.3592 107.929C92.335 107.863 92.2963 107.809 92.243 107.767C92.1898 107.724 92.1172 107.703 92.0252 107.703C91.9642 107.703 91.9081 107.716 91.8568 107.742C91.8054 107.767 91.7614 107.805 91.7246 107.855C91.6878 107.906 91.6593 107.967 91.6389 108.04C91.6186 108.112 91.6084 108.196 91.6084 108.291V108.352C91.6084 108.426 91.6186 108.497 91.6389 108.562C91.6602 108.627 91.6907 108.684 91.7304 108.734C91.7711 108.783 91.82 108.822 91.8771 108.85C91.9352 108.878 92.001 108.892 92.0746 108.892C92.1695 108.892 92.2498 108.873 92.3156 108.834C92.3815 108.795 92.4391 108.743 92.4885 108.679L92.6511 108.808C92.6172 108.859 92.5741 108.908 92.5219 108.955C92.4696 109.001 92.4052 109.039 92.3287 109.068C92.2532 109.097 92.1636 109.111 92.0601 109.111Z" fill="#5E6A75"/>
<rect x="68.8572" y="122.971" width="166.788" height="8.2849" rx="0.743517" fill="white" stroke="#7B858F" stroke-width="0.212433"/>
<path d="M71.9726 127.317H72.2514C72.2369 127.45 72.1986 127.57 72.1367 127.675C72.0747 127.781 71.9871 127.864 71.8738 127.926C71.7606 127.987 71.6192 128.018 71.4498 128.018C71.3259 128.018 71.2131 127.995 71.1114 127.948C71.0107 127.902 70.9241 127.836 70.8515 127.751C70.7789 127.665 70.7227 127.561 70.683 127.441C70.6443 127.32 70.6249 127.186 70.6249 127.038V126.827C70.6249 126.679 70.6443 126.545 70.683 126.425C70.7227 126.304 70.7794 126.2 70.8529 126.114C70.9275 126.028 71.017 125.962 71.1216 125.915C71.2261 125.869 71.3438 125.845 71.4745 125.845C71.6342 125.845 71.7693 125.875 71.8796 125.935C71.99 125.996 72.0757 126.079 72.1367 126.185C72.1986 126.291 72.2369 126.413 72.2514 126.553H71.9726C71.959 126.454 71.9338 126.369 71.8971 126.299C71.8603 126.227 71.808 126.172 71.7402 126.133C71.6725 126.094 71.5839 126.075 71.4745 126.075C71.3806 126.075 71.2978 126.093 71.2261 126.129C71.1555 126.164 71.0959 126.215 71.0475 126.281C71.0001 126.347 70.9643 126.426 70.9401 126.518C70.9159 126.61 70.9038 126.712 70.9038 126.824V127.038C70.9038 127.141 70.9144 127.239 70.9357 127.33C70.958 127.421 70.9914 127.5 71.0359 127.569C71.0804 127.638 71.1371 127.692 71.2058 127.732C71.2746 127.771 71.3559 127.79 71.4498 127.79C71.5689 127.79 71.6637 127.771 71.7344 127.733C71.8051 127.696 71.8583 127.641 71.8942 127.571C71.9309 127.5 71.9571 127.415 71.9726 127.317ZM73.5701 127.72V126.911C73.5701 126.849 73.5575 126.796 73.5324 126.75C73.5082 126.704 73.4714 126.668 73.422 126.643C73.3726 126.618 73.3116 126.605 73.239 126.605C73.1713 126.605 73.1117 126.617 73.0604 126.64C73.0101 126.663 72.9704 126.694 72.9413 126.731C72.9133 126.769 72.8992 126.81 72.8992 126.853H72.6306C72.6306 126.797 72.6451 126.741 72.6741 126.686C72.7032 126.631 72.7448 126.581 72.799 126.537C72.8542 126.491 72.92 126.455 72.9965 126.429C73.074 126.402 73.1601 126.389 73.255 126.389C73.3692 126.389 73.4699 126.408 73.5571 126.447C73.6452 126.485 73.7139 126.544 73.7633 126.622C73.8136 126.7 73.8388 126.797 73.8388 126.914V127.646C73.8388 127.698 73.8431 127.754 73.8519 127.813C73.8615 127.872 73.8756 127.923 73.894 127.966V127.989H73.6137C73.6001 127.958 73.5895 127.917 73.5817 127.865C73.574 127.813 73.5701 127.765 73.5701 127.72ZM73.6166 127.036L73.6195 127.225H73.3479C73.2715 127.225 73.2032 127.231 73.1432 127.244C73.0832 127.256 73.0328 127.273 72.9922 127.298C72.9515 127.322 72.9205 127.352 72.8992 127.389C72.8779 127.425 72.8673 127.467 72.8673 127.515C72.8673 127.565 72.8784 127.61 72.9007 127.651C72.9229 127.691 72.9563 127.724 73.0009 127.748C73.0464 127.771 73.102 127.783 73.1679 127.783C73.2502 127.783 73.3228 127.765 73.3857 127.73C73.4486 127.696 73.4985 127.653 73.5353 127.603C73.573 127.552 73.5934 127.503 73.5963 127.456L73.711 127.585C73.7042 127.626 73.6858 127.671 73.6558 127.72C73.6258 127.77 73.5856 127.817 73.5353 127.863C73.4859 127.907 73.4268 127.944 73.3581 127.974C73.2903 128.003 73.2139 128.018 73.1287 128.018C73.0222 128.018 72.9287 127.997 72.8484 127.955C72.769 127.914 72.707 127.858 72.6625 127.788C72.6189 127.718 72.5972 127.639 72.5972 127.552C72.5972 127.468 72.6136 127.393 72.6465 127.33C72.6795 127.265 72.7269 127.211 72.7889 127.168C72.8508 127.125 72.9254 127.092 73.0125 127.07C73.0996 127.047 73.1969 127.036 73.3044 127.036H73.6166ZM75.2272 127.572C75.2272 127.533 75.2185 127.498 75.2011 127.465C75.1846 127.431 75.1503 127.4 75.098 127.373C75.0467 127.345 74.9692 127.321 74.8656 127.301C74.7785 127.282 74.6996 127.26 74.6289 127.235C74.5592 127.21 74.4997 127.18 74.4503 127.144C74.4019 127.108 74.3646 127.066 74.3385 127.017C74.3123 126.969 74.2993 126.912 74.2993 126.847C74.2993 126.786 74.3128 126.727 74.3399 126.672C74.368 126.617 74.4072 126.568 74.4576 126.525C74.5089 126.482 74.5704 126.449 74.642 126.425C74.7136 126.401 74.7935 126.389 74.8816 126.389C75.0075 126.389 75.1149 126.411 75.204 126.455C75.2931 126.5 75.3613 126.559 75.4087 126.634C75.4562 126.708 75.4799 126.789 75.4799 126.879H75.2112C75.2112 126.836 75.1982 126.794 75.172 126.753C75.1469 126.711 75.1096 126.677 75.0602 126.65C75.0118 126.623 74.9523 126.609 74.8816 126.609C74.8071 126.609 74.7466 126.621 74.7001 126.644C74.6546 126.666 74.6212 126.695 74.5999 126.73C74.5796 126.765 74.5694 126.801 74.5694 126.84C74.5694 126.869 74.5742 126.895 74.5839 126.919C74.5946 126.941 74.613 126.962 74.6391 126.981C74.6652 126.999 74.702 127.017 74.7495 127.033C74.7969 127.05 74.8574 127.066 74.931 127.083C75.0597 127.112 75.1657 127.147 75.249 127.187C75.3323 127.228 75.3942 127.278 75.4349 127.337C75.4755 127.396 75.4959 127.468 75.4959 127.552C75.4959 127.621 75.4814 127.683 75.4523 127.741C75.4242 127.798 75.3831 127.847 75.3289 127.889C75.2756 127.929 75.2117 127.961 75.1372 127.985C75.0636 128.007 74.9808 128.018 74.8889 128.018C74.7504 128.018 74.6333 127.993 74.5374 127.944C74.4416 127.894 74.369 127.831 74.3196 127.752C74.2702 127.674 74.2455 127.591 74.2455 127.504H74.5157C74.5195 127.577 74.5408 127.636 74.5796 127.68C74.6183 127.722 74.6657 127.753 74.7219 127.771C74.778 127.788 74.8337 127.797 74.8889 127.797C74.9624 127.797 75.0239 127.788 75.0733 127.768C75.1236 127.749 75.1619 127.722 75.188 127.688C75.2142 127.654 75.2272 127.616 75.2272 127.572ZM76.5518 128.018C76.4424 128.018 76.3431 128 76.2541 127.963C76.166 127.925 76.09 127.872 76.0261 127.804C75.9632 127.737 75.9147 127.656 75.8809 127.563C75.847 127.47 75.83 127.369 75.83 127.258V127.197C75.83 127.07 75.8489 126.956 75.8867 126.856C75.9244 126.755 75.9757 126.67 76.0406 126.601C76.1055 126.531 76.179 126.478 76.2613 126.442C76.3436 126.406 76.4288 126.389 76.5169 126.389C76.6292 126.389 76.726 126.408 76.8074 126.447C76.8896 126.485 76.9569 126.54 77.0092 126.609C77.0615 126.678 77.1002 126.759 77.1254 126.853C77.1506 126.946 77.1631 127.048 77.1631 127.158V127.279H75.9898V127.059H76.8945V127.039C76.8906 126.969 76.8761 126.902 76.8509 126.836C76.8267 126.77 76.788 126.716 76.7347 126.673C76.6815 126.631 76.6089 126.609 76.5169 126.609C76.4559 126.609 76.3998 126.622 76.3485 126.649C76.2972 126.674 76.2531 126.711 76.2163 126.762C76.1795 126.812 76.151 126.874 76.1306 126.946C76.1103 127.019 76.1001 127.103 76.1001 127.197V127.258C76.1001 127.333 76.1103 127.403 76.1306 127.469C76.1519 127.534 76.1824 127.591 76.2221 127.64C76.2628 127.69 76.3117 127.728 76.3688 127.757C76.4269 127.785 76.4927 127.799 76.5663 127.799C76.6612 127.799 76.7415 127.779 76.8074 127.741C76.8732 127.702 76.9308 127.65 76.9802 127.585L77.1428 127.714C77.1089 127.766 77.0658 127.815 77.0136 127.861C76.9613 127.908 76.8969 127.945 76.8204 127.974C76.7449 128.003 76.6554 128.018 76.5518 128.018ZM78.9743 126.418V126.624H78.1248V126.418H78.9743ZM78.4123 126.036H78.681V127.6C78.681 127.653 78.6892 127.693 78.7057 127.72C78.7221 127.747 78.7434 127.765 78.7696 127.774C78.7957 127.783 78.8238 127.787 78.8538 127.787C78.8761 127.787 78.8993 127.785 78.9235 127.781C78.9487 127.776 78.9675 127.773 78.9801 127.77L78.9816 127.989C78.9603 127.996 78.9322 128.002 78.8974 128.008C78.8635 128.015 78.8223 128.018 78.7739 128.018C78.7081 128.018 78.6476 128.005 78.5924 127.979C78.5372 127.953 78.4932 127.909 78.4603 127.848C78.4283 127.786 78.4123 127.703 78.4123 127.598V126.036ZM79.6323 126.418V127.989H79.3622V126.418H79.6323ZM79.3419 126.001C79.3419 125.957 79.355 125.92 79.3811 125.89C79.4082 125.86 79.4479 125.845 79.5002 125.845C79.5515 125.845 79.5907 125.86 79.6178 125.89C79.6459 125.92 79.6599 125.957 79.6599 126.001C79.6599 126.042 79.6459 126.078 79.6178 126.108C79.5907 126.137 79.5515 126.152 79.5002 126.152C79.4479 126.152 79.4082 126.137 79.3811 126.108C79.355 126.078 79.3419 126.042 79.3419 126.001ZM80.7724 126.418V126.624H79.9229V126.418H80.7724ZM80.2104 126.036H80.4791V127.6C80.4791 127.653 80.4873 127.693 80.5038 127.72C80.5202 127.747 80.5415 127.765 80.5677 127.774C80.5938 127.783 80.6219 127.787 80.6519 127.787C80.6742 127.787 80.6974 127.785 80.7216 127.781C80.7468 127.776 80.7657 127.773 80.7782 127.77L80.7797 127.989C80.7584 127.996 80.7303 128.002 80.6955 128.008C80.6616 128.015 80.6204 128.018 80.572 128.018C80.5062 128.018 80.4457 128.005 80.3905 127.979C80.3353 127.953 80.2913 127.909 80.2584 127.848C80.2264 127.786 80.2104 127.703 80.2104 127.598V126.036ZM81.4304 125.758V127.989H81.1603V125.758H81.4304ZM82.5647 128.018C82.4554 128.018 82.3561 128 82.2671 127.963C82.179 127.925 82.103 127.872 82.0391 127.804C81.9761 127.737 81.9277 127.656 81.8938 127.563C81.86 127.47 81.843 127.369 81.843 127.258V127.197C81.843 127.07 81.8619 126.956 81.8996 126.856C81.9374 126.755 81.9887 126.67 82.0536 126.601C82.1184 126.531 82.192 126.478 82.2743 126.442C82.3566 126.406 82.4418 126.389 82.5299 126.389C82.6422 126.389 82.739 126.408 82.8203 126.447C82.9026 126.485 82.9699 126.54 83.0222 126.609C83.0745 126.678 83.1132 126.759 83.1384 126.853C83.1635 126.946 83.1761 127.048 83.1761 127.158V127.279H82.0028V127.059H82.9075V127.039C82.9036 126.969 82.8891 126.902 82.8639 126.836C82.8397 126.77 82.801 126.716 82.7477 126.673C82.6945 126.631 82.6219 126.609 82.5299 126.609C82.4689 126.609 82.4128 126.622 82.3614 126.649C82.3101 126.674 82.2661 126.711 82.2293 126.762C82.1925 126.812 82.1639 126.874 82.1436 126.946C82.1233 127.019 82.1131 127.103 82.1131 127.197V127.258C82.1131 127.333 82.1233 127.403 82.1436 127.469C82.1649 127.534 82.1954 127.591 82.2351 127.64C82.2758 127.69 82.3247 127.728 82.3818 127.757C82.4399 127.785 82.5057 127.799 82.5793 127.799C82.6741 127.799 82.7545 127.779 82.8203 127.741C82.8862 127.702 82.9438 127.65 82.9931 127.585L83.1558 127.714C83.1219 127.766 83.0788 127.815 83.0265 127.861C82.9743 127.908 82.9099 127.945 82.8334 127.974C82.7579 128.003 82.6683 128.018 82.5647 128.018Z" fill="#5E6A75"/>
<path d="M69.7086 139.46H69.1825L69.1858 139.072H69.7086C69.8391 139.072 69.9492 139.043 70.0389 138.984C70.1285 138.924 70.196 138.837 70.2413 138.723C70.2878 138.609 70.311 138.472 70.311 138.31V138.192C70.311 138.068 70.2978 137.959 70.2712 137.865C70.2458 137.771 70.2076 137.692 70.1567 137.628C70.1058 137.564 70.0433 137.516 69.9691 137.484C69.895 137.45 69.8098 137.434 69.7136 137.434H69.1725V137.044H69.7136C69.8751 137.044 70.0228 137.072 70.1567 137.127C70.2917 137.181 70.4084 137.259 70.5069 137.361C70.6053 137.463 70.6811 137.584 70.7342 137.726C70.7885 137.867 70.8156 138.023 70.8156 138.196V138.31C70.8156 138.482 70.7885 138.638 70.7342 138.78C70.6811 138.921 70.6053 139.043 70.5069 139.145C70.4095 139.246 70.2928 139.324 70.1567 139.379C70.0217 139.433 69.8723 139.46 69.7086 139.46ZM69.4646 137.044V139.46H68.9667V137.044H69.4646ZM72.008 139.493C71.8686 139.493 71.7435 139.471 71.6329 139.427C71.5223 139.382 71.4282 139.319 71.3508 139.24C71.2744 139.16 71.2158 139.068 71.1748 138.962C71.1339 138.856 71.1134 138.743 71.1134 138.624V138.557C71.1134 138.421 71.1328 138.297 71.1715 138.184C71.2102 138.071 71.2656 137.973 71.3375 137.89C71.4105 137.807 71.499 137.744 71.603 137.699C71.707 137.654 71.8243 137.631 71.9549 137.631C72.0821 137.631 72.195 137.652 72.2934 137.694C72.3919 137.736 72.4743 137.796 72.5407 137.874C72.6082 137.951 72.6591 138.044 72.6934 138.153C72.7277 138.26 72.7449 138.379 72.7449 138.511V138.71H71.3176V138.391H72.2752V138.355C72.2752 138.289 72.263 138.229 72.2387 138.177C72.2154 138.124 72.18 138.082 72.1325 138.051C72.0849 138.02 72.024 138.005 71.9499 138.005C71.8868 138.005 71.8326 138.019 71.7872 138.046C71.7419 138.074 71.7048 138.113 71.6761 138.162C71.6484 138.212 71.6274 138.271 71.613 138.338C71.5997 138.405 71.5931 138.478 71.5931 138.557V138.624C71.5931 138.696 71.603 138.762 71.6229 138.823C71.644 138.884 71.6733 138.936 71.7109 138.981C71.7496 139.025 71.7961 139.059 71.8503 139.084C71.9056 139.108 71.9681 139.12 72.0379 139.12C72.1242 139.12 72.2044 139.103 72.2785 139.07C72.3537 139.036 72.4185 138.985 72.4727 138.916L72.705 139.168C72.6674 139.222 72.616 139.274 72.5507 139.324C72.4865 139.374 72.4091 139.415 72.3183 139.447C72.2276 139.478 72.1242 139.493 72.008 139.493ZM74.0219 138.964C74.0219 138.93 74.012 138.899 73.992 138.871C73.9721 138.843 73.9351 138.818 73.8808 138.795C73.8277 138.77 73.7508 138.748 73.6502 138.728C73.5594 138.708 73.4748 138.684 73.3962 138.654C73.3188 138.623 73.2513 138.586 73.1938 138.543C73.1373 138.499 73.0931 138.448 73.061 138.39C73.0289 138.33 73.0129 138.262 73.0129 138.186C73.0129 138.11 73.0289 138.04 73.061 137.973C73.0942 137.907 73.1412 137.848 73.2021 137.797C73.264 137.745 73.3393 137.705 73.4278 137.676C73.5174 137.646 73.6181 137.631 73.7298 137.631C73.8858 137.631 74.0197 137.656 74.1315 137.706C74.2443 137.756 74.3306 137.824 74.3904 137.912C74.4512 137.998 74.4816 138.097 74.4816 138.207H74.0037C74.0037 138.161 73.9937 138.119 73.9738 138.083C73.955 138.045 73.9251 138.016 73.8842 137.995C73.8443 137.973 73.7923 137.962 73.7282 137.962C73.6751 137.962 73.6291 137.971 73.5904 137.99C73.5517 138.008 73.5218 138.032 73.5008 138.063C73.4809 138.093 73.4709 138.126 73.4709 138.162C73.4709 138.19 73.4764 138.215 73.4875 138.237C73.4997 138.258 73.519 138.278 73.5456 138.295C73.5722 138.313 73.6065 138.33 73.6485 138.345C73.6916 138.359 73.7448 138.373 73.8078 138.385C73.9373 138.411 74.0529 138.446 74.1547 138.489C74.2565 138.531 74.3372 138.589 74.397 138.662C74.4567 138.734 74.4866 138.829 74.4866 138.946C74.4866 139.025 74.4689 139.099 74.4335 139.165C74.3981 139.231 74.3472 139.289 74.2808 139.339C74.2144 139.388 74.1348 139.426 74.0418 139.454C73.95 139.48 73.8465 139.493 73.7315 139.493C73.5644 139.493 73.4228 139.464 73.3066 139.404C73.1915 139.344 73.1041 139.268 73.0444 139.177C72.9857 139.084 72.9564 138.988 72.9564 138.891H73.4095C73.4117 138.956 73.4283 139.009 73.4593 139.049C73.4914 139.089 73.5318 139.117 73.5805 139.135C73.6302 139.153 73.6839 139.162 73.7414 139.162C73.8034 139.162 73.8548 139.153 73.8958 139.137C73.9367 139.119 73.9677 139.096 73.9887 139.067C74.0109 139.037 74.0219 139.003 74.0219 138.964ZM75.5728 139.12C75.6315 139.12 75.6835 139.109 75.7288 139.087C75.7742 139.064 75.8096 139.032 75.835 138.991C75.8616 138.949 75.8754 138.899 75.8765 138.843H76.3263C76.3252 138.969 76.2914 139.081 76.225 139.18C76.1587 139.277 76.0696 139.354 75.9578 139.411C75.8461 139.466 75.7211 139.493 75.5828 139.493C75.4434 139.493 75.3217 139.47 75.2176 139.424C75.1148 139.377 75.029 139.313 74.9604 139.231C74.8918 139.148 74.8404 139.052 74.8061 138.942C74.7718 138.832 74.7546 138.713 74.7546 138.587V138.539C74.7546 138.412 74.7718 138.294 74.8061 138.184C74.8404 138.073 74.8918 137.977 74.9604 137.895C75.029 137.812 75.1148 137.748 75.2176 137.701C75.3205 137.655 75.4411 137.631 75.5794 137.631C75.7266 137.631 75.8555 137.66 75.9661 137.716C76.0779 137.772 76.1653 137.853 76.2284 137.958C76.2925 138.062 76.3252 138.186 76.3263 138.328H75.8765C75.8754 138.269 75.8627 138.214 75.8384 138.166C75.8151 138.117 75.7808 138.078 75.7355 138.05C75.6912 138.02 75.6364 138.005 75.5712 138.005C75.5014 138.005 75.4445 138.02 75.4002 138.05C75.356 138.078 75.3217 138.118 75.2973 138.169C75.273 138.219 75.2558 138.276 75.2459 138.34C75.237 138.403 75.2326 138.47 75.2326 138.539V138.587C75.2326 138.657 75.237 138.724 75.2459 138.788C75.2547 138.852 75.2713 138.909 75.2957 138.959C75.3211 139.009 75.356 139.048 75.4002 139.077C75.4445 139.106 75.502 139.12 75.5728 139.12ZM77.1154 138.056V139.46H76.6374V137.665H77.0872L77.1154 138.056ZM77.6565 137.653L77.6482 138.096C77.6249 138.093 77.5967 138.09 77.5635 138.088C77.5314 138.084 77.5021 138.083 77.4756 138.083C77.4081 138.083 77.3494 138.092 77.2996 138.109C77.2509 138.126 77.21 138.151 77.1768 138.184C77.1447 138.217 77.1204 138.258 77.1038 138.305C77.0883 138.353 77.0795 138.407 77.0772 138.468L76.981 138.438C76.981 138.322 76.9926 138.215 77.0158 138.118C77.0391 138.019 77.0728 137.933 77.1171 137.86C77.1624 137.787 77.2178 137.731 77.283 137.691C77.3483 137.651 77.423 137.631 77.5071 137.631C77.5336 137.631 77.5607 137.634 77.5884 137.638C77.6161 137.641 77.6387 137.646 77.6565 137.653ZM78.4207 137.665V139.46H77.941V137.665H78.4207ZM77.9112 137.197C77.9112 137.127 77.9355 137.069 77.9842 137.024C78.0329 136.979 78.0982 136.956 78.18 136.956C78.2608 136.956 78.3255 136.979 78.3742 137.024C78.424 137.069 78.4489 137.127 78.4489 137.197C78.4489 137.266 78.424 137.324 78.3742 137.369C78.3255 137.415 78.2608 137.437 78.18 137.437C78.0982 137.437 78.0329 137.415 77.9842 137.369C77.9355 137.324 77.9112 137.266 77.9112 137.197ZM78.8497 136.911H79.3276V139.049L79.2795 139.46H78.8497V136.911ZM80.4645 138.544V138.579C80.4645 138.713 80.4501 138.836 80.4213 138.947C80.3937 139.059 80.3505 139.156 80.2919 139.238C80.2332 139.319 80.1602 139.382 80.0728 139.427C79.9865 139.471 79.8847 139.493 79.7674 139.493C79.6579 139.493 79.5628 139.471 79.482 139.427C79.4023 139.383 79.3354 139.32 79.2812 139.24C79.227 139.159 79.1832 139.064 79.1501 138.956C79.1169 138.847 79.092 138.729 79.0754 138.601V138.524C79.092 138.396 79.1169 138.278 79.1501 138.169C79.1832 138.061 79.227 137.966 79.2812 137.885C79.3354 137.805 79.4023 137.742 79.482 137.698C79.5616 137.654 79.6557 137.631 79.7641 137.631C79.8825 137.631 79.9854 137.654 80.0728 137.699C80.1613 137.744 80.2344 137.807 80.2919 137.889C80.3505 137.969 80.3937 138.066 80.4213 138.177C80.4501 138.288 80.4645 138.41 80.4645 138.544ZM79.9865 138.579V138.544C79.9865 138.471 79.981 138.403 79.9699 138.338C79.96 138.273 79.9423 138.216 79.9168 138.167C79.8914 138.118 79.8565 138.078 79.8123 138.05C79.7691 138.021 79.7132 138.006 79.6446 138.006C79.5793 138.006 79.524 138.018 79.4787 138.04C79.4333 138.062 79.3957 138.093 79.3658 138.133C79.337 138.172 79.3155 138.22 79.3011 138.275C79.2867 138.33 79.2778 138.389 79.2745 138.455V138.672C79.2778 138.759 79.2922 138.837 79.3177 138.904C79.3442 138.971 79.3841 139.023 79.4372 139.062C79.4914 139.1 79.5616 139.118 79.6479 139.118C79.7154 139.118 79.7713 139.105 79.8156 139.079C79.8598 139.052 79.8941 139.014 79.9185 138.966C79.9439 138.917 79.9616 138.86 79.9716 138.795C79.9815 138.728 79.9865 138.656 79.9865 138.579ZM81.6221 139.493C81.4826 139.493 81.3576 139.471 81.247 139.427C81.1363 139.382 81.0423 139.319 80.9648 139.24C80.8885 139.16 80.8299 139.068 80.7889 138.962C80.748 138.856 80.7275 138.743 80.7275 138.624V138.557C80.7275 138.421 80.7469 138.297 80.7856 138.184C80.8243 138.071 80.8796 137.973 80.9516 137.89C81.0246 137.807 81.1131 137.744 81.2171 137.699C81.3211 137.654 81.4384 137.631 81.5689 137.631C81.6962 137.631 81.809 137.652 81.9075 137.694C82.006 137.736 82.0884 137.796 82.1548 137.874C82.2223 137.951 82.2732 138.044 82.3075 138.153C82.3418 138.26 82.3589 138.379 82.3589 138.511V138.71H80.9316V138.391H81.8893V138.355C81.8893 138.289 81.8771 138.229 81.8527 138.177C81.8295 138.124 81.7941 138.082 81.7465 138.051C81.6989 138.02 81.6381 138.005 81.564 138.005C81.5009 138.005 81.4467 138.019 81.4013 138.046C81.356 138.074 81.3189 138.113 81.2901 138.162C81.2625 138.212 81.2414 138.271 81.2271 138.338C81.2138 138.405 81.2071 138.478 81.2071 138.557V138.624C81.2071 138.696 81.2171 138.762 81.237 138.823C81.258 138.884 81.2874 138.936 81.325 138.981C81.3637 139.025 81.4102 139.059 81.4644 139.084C81.5197 139.108 81.5822 139.12 81.6519 139.12C81.7382 139.12 81.8184 139.103 81.8926 139.07C81.9678 139.036 82.0325 138.985 82.0867 138.916L82.3191 139.168C82.2815 139.222 82.23 139.274 82.1648 139.324C82.1006 139.374 82.0231 139.415 81.9324 139.447C81.8417 139.478 81.7382 139.493 81.6221 139.493ZM84.0782 139.258L84.5546 137.665H85.0674L84.3454 139.731C84.33 139.776 84.3089 139.825 84.2824 139.877C84.2569 139.929 84.2221 139.978 84.1778 140.025C84.1347 140.072 84.0799 140.111 84.0135 140.141C83.9482 140.171 83.868 140.186 83.7729 140.186C83.7275 140.186 83.6904 140.183 83.6617 140.177C83.6329 140.172 83.5986 140.164 83.5588 140.154V139.804C83.571 139.804 83.5837 139.804 83.597 139.804C83.6102 139.805 83.623 139.806 83.6351 139.806C83.6982 139.806 83.7496 139.798 83.7895 139.784C83.8293 139.77 83.8614 139.747 83.8857 139.718C83.9101 139.689 83.9294 139.651 83.9438 139.605L84.0782 139.258ZM83.8791 137.665L84.2691 138.966L84.3371 139.472L84.0119 139.507L83.3663 137.665H83.8791ZM85.1893 138.581V138.546C85.1893 138.414 85.2081 138.293 85.2458 138.182C85.2834 138.071 85.3382 137.974 85.4101 137.892C85.482 137.81 85.5705 137.746 85.6756 137.701C85.7807 137.655 85.9013 137.631 86.0374 137.631C86.1735 137.631 86.2947 137.655 86.4009 137.701C86.5071 137.746 86.5962 137.81 86.6681 137.892C86.7411 137.974 86.7964 138.071 86.834 138.182C86.8717 138.293 86.8905 138.414 86.8905 138.546V138.581C86.8905 138.711 86.8717 138.832 86.834 138.944C86.7964 139.055 86.7411 139.152 86.6681 139.235C86.5962 139.316 86.5076 139.38 86.4025 139.425C86.2974 139.471 86.1768 139.493 86.0407 139.493C85.9046 139.493 85.7835 139.471 85.6773 139.425C85.5722 139.38 85.4831 139.316 85.4101 139.235C85.3382 139.152 85.2834 139.055 85.2458 138.944C85.2081 138.832 85.1893 138.711 85.1893 138.581ZM85.6673 138.546V138.581C85.6673 138.656 85.674 138.726 85.6872 138.791C85.7005 138.857 85.7215 138.914 85.7503 138.964C85.7802 139.013 85.8189 139.051 85.8665 139.079C85.914 139.106 85.9721 139.12 86.0407 139.12C86.1071 139.12 86.1641 139.106 86.2117 139.079C86.2593 139.051 86.2974 139.013 86.3262 138.964C86.355 138.914 86.376 138.857 86.3893 138.791C86.4036 138.726 86.4108 138.656 86.4108 138.581V138.546C86.4108 138.473 86.4036 138.404 86.3893 138.34C86.376 138.275 86.3544 138.217 86.3245 138.167C86.2958 138.117 86.2576 138.077 86.21 138.048C86.1624 138.019 86.1049 138.005 86.0374 138.005C85.9699 138.005 85.9124 138.019 85.8648 138.048C85.8183 138.077 85.7802 138.117 85.7503 138.167C85.7215 138.217 85.7005 138.275 85.6872 138.34C85.674 138.404 85.6673 138.473 85.6673 138.546ZM88.2804 139.03V137.665H88.7584V139.46H88.3086L88.2804 139.03ZM88.3335 138.662L88.4746 138.659C88.4746 138.778 88.4607 138.889 88.4331 138.992C88.4054 139.094 88.3639 139.183 88.3086 139.258C88.2533 139.332 88.1836 139.39 88.0995 139.432C88.0154 139.473 87.9164 139.493 87.8024 139.493C87.715 139.493 87.6342 139.481 87.5601 139.457C87.4871 139.432 87.424 139.392 87.3709 139.339C87.3189 139.285 87.278 139.216 87.2481 139.132C87.2193 139.047 87.2049 138.944 87.2049 138.825V137.665H87.6829V138.828C87.6829 138.881 87.689 138.926 87.7012 138.962C87.7144 138.999 87.7327 139.029 87.7559 139.052C87.7792 139.075 87.8063 139.092 87.8373 139.102C87.8693 139.112 87.9047 139.117 87.9435 139.117C88.0419 139.117 88.1194 139.097 88.1758 139.057C88.2334 139.017 88.2737 138.963 88.297 138.894C88.3213 138.825 88.3335 138.747 88.3335 138.662ZM89.6354 138.056V139.46H89.1575V137.665H89.6072L89.6354 138.056ZM90.1765 137.653L90.1682 138.096C90.1449 138.093 90.1167 138.09 90.0835 138.088C90.0515 138.084 90.0221 138.083 89.9956 138.083C89.9281 138.083 89.8694 138.092 89.8197 138.109C89.771 138.126 89.73 138.151 89.6968 138.184C89.6648 138.217 89.6404 138.258 89.6238 138.305C89.6083 138.353 89.5995 138.407 89.5973 138.468L89.501 138.438C89.501 138.322 89.5126 138.215 89.5359 138.118C89.5591 138.019 89.5928 137.933 89.6371 137.86C89.6825 137.787 89.7378 137.731 89.8031 137.691C89.8683 137.651 89.943 137.631 90.0271 137.631C90.0537 137.631 90.0808 137.634 90.1084 137.638C90.1361 137.641 90.1588 137.646 90.1765 137.653ZM92.0584 139.12C92.1171 139.12 92.1691 139.109 92.2144 139.087C92.2598 139.064 92.2952 139.032 92.3207 138.991C92.3472 138.949 92.361 138.899 92.3622 138.843H92.8119C92.8108 138.969 92.7771 139.081 92.7107 139.18C92.6443 139.277 92.5552 139.354 92.4435 139.411C92.3317 139.466 92.2067 139.493 92.0684 139.493C91.929 139.493 91.8073 139.47 91.7033 139.424C91.6004 139.377 91.5146 139.313 91.446 139.231C91.3774 139.148 91.326 139.052 91.2917 138.942C91.2574 138.832 91.2402 138.713 91.2402 138.587V138.539C91.2402 138.412 91.2574 138.294 91.2917 138.184C91.326 138.073 91.3774 137.977 91.446 137.895C91.5146 137.812 91.6004 137.748 91.7033 137.701C91.8062 137.655 91.9268 137.631 92.0651 137.631C92.2122 137.631 92.3411 137.66 92.4518 137.716C92.5635 137.772 92.6509 137.853 92.714 137.958C92.7782 138.062 92.8108 138.186 92.8119 138.328H92.3622C92.361 138.269 92.3483 138.214 92.324 138.166C92.3007 138.117 92.2664 138.078 92.2211 138.05C92.1768 138.02 92.1221 138.005 92.0568 138.005C91.9871 138.005 91.9301 138.02 91.8858 138.05C91.8416 138.078 91.8073 138.118 91.7829 138.169C91.7586 138.219 91.7414 138.276 91.7315 138.34C91.7226 138.403 91.7182 138.47 91.7182 138.539V138.587C91.7182 138.657 91.7226 138.724 91.7315 138.788C91.7403 138.852 91.7569 138.909 91.7813 138.959C91.8067 139.009 91.8416 139.048 91.8858 139.077C91.9301 139.106 91.9876 139.12 92.0584 139.12ZM94.0923 139.055V138.255C94.0923 138.198 94.0829 138.149 94.0641 138.108C94.0453 138.066 94.0159 138.033 93.9761 138.01C93.9374 137.987 93.8871 137.975 93.8251 137.975C93.772 137.975 93.7261 137.984 93.6873 138.003C93.6486 138.021 93.6187 138.047 93.5977 138.081C93.5767 138.114 93.5662 138.154 93.5662 138.199H93.0882C93.0882 138.123 93.1059 138.05 93.1413 137.982C93.1767 137.913 93.2282 137.853 93.2957 137.801C93.3632 137.748 93.4434 137.706 93.5363 137.676C93.6304 137.646 93.7355 137.631 93.8516 137.631C93.9911 137.631 94.115 137.655 94.2234 137.701C94.3318 137.748 94.417 137.817 94.479 137.91C94.5421 138.003 94.5736 138.119 94.5736 138.259V139.027C94.5736 139.126 94.5797 139.206 94.5918 139.269C94.604 139.331 94.6217 139.386 94.645 139.432V139.46H94.162C94.1388 139.412 94.1211 139.351 94.1089 139.278C94.0978 139.204 94.0923 139.129 94.0923 139.055ZM94.1554 138.367L94.1587 138.637H93.8915C93.8284 138.637 93.7736 138.644 93.7272 138.659C93.6807 138.673 93.6425 138.694 93.6127 138.72C93.5828 138.746 93.5607 138.775 93.5463 138.81C93.533 138.844 93.5264 138.882 93.5264 138.923C93.5264 138.964 93.5358 139.001 93.5546 139.034C93.5734 139.066 93.6005 139.091 93.6359 139.11C93.6713 139.128 93.7128 139.137 93.7604 139.137C93.8323 139.137 93.8948 139.122 93.9479 139.094C94.001 139.065 94.0419 139.029 94.0707 138.987C94.1006 138.945 94.1161 138.905 94.1172 138.868L94.2433 139.07C94.2256 139.116 94.2013 139.163 94.1703 139.211C94.1404 139.26 94.1022 139.306 94.0558 139.349C94.0093 139.391 93.9534 139.426 93.8882 139.454C93.8229 139.48 93.7454 139.493 93.6558 139.493C93.5418 139.493 93.4384 139.471 93.3455 139.425C93.2536 139.379 93.1806 139.315 93.1264 139.235C93.0733 139.153 93.0467 139.06 93.0467 138.956C93.0467 138.862 93.0644 138.778 93.0998 138.705C93.1352 138.632 93.1872 138.571 93.2558 138.521C93.3255 138.47 93.4124 138.432 93.5164 138.406C93.6204 138.38 93.741 138.367 93.8782 138.367H94.1554ZM95.9469 138.964C95.9469 138.93 95.9369 138.899 95.917 138.871C95.8971 138.843 95.86 138.818 95.8058 138.795C95.7527 138.77 95.6758 138.748 95.5751 138.728C95.4844 138.708 95.3998 138.684 95.3212 138.654C95.2438 138.623 95.1763 138.586 95.1187 138.543C95.0623 138.499 95.0181 138.448 94.986 138.39C94.9539 138.33 94.9378 138.262 94.9378 138.186C94.9378 138.11 94.9539 138.04 94.986 137.973C95.0192 137.907 95.0662 137.848 95.127 137.797C95.189 137.745 95.2642 137.705 95.3528 137.676C95.4424 137.646 95.5431 137.631 95.6548 137.631C95.8108 137.631 95.9447 137.656 96.0564 137.706C96.1693 137.756 96.2556 137.824 96.3153 137.912C96.3762 137.998 96.4066 138.097 96.4066 138.207H95.9286C95.9286 138.161 95.9187 138.119 95.8988 138.083C95.88 138.045 95.8501 138.016 95.8092 137.995C95.7693 137.973 95.7173 137.962 95.6531 137.962C95.6 137.962 95.5541 137.971 95.5154 137.99C95.4767 138.008 95.4468 138.032 95.4258 138.063C95.4059 138.093 95.3959 138.126 95.3959 138.162C95.3959 138.19 95.4014 138.215 95.4125 138.237C95.4247 138.258 95.444 138.278 95.4706 138.295C95.4971 138.313 95.5314 138.33 95.5735 138.345C95.6166 138.359 95.6697 138.373 95.7328 138.385C95.8623 138.411 95.9779 138.446 96.0797 138.489C96.1815 138.531 96.2622 138.589 96.322 138.662C96.3817 138.734 96.4116 138.829 96.4116 138.946C96.4116 139.025 96.3939 139.099 96.3585 139.165C96.3231 139.231 96.2722 139.289 96.2058 139.339C96.1394 139.388 96.0598 139.426 95.9668 139.454C95.875 139.48 95.7715 139.493 95.6565 139.493C95.4894 139.493 95.3478 139.464 95.2316 139.404C95.1165 139.344 95.0291 139.268 94.9694 139.177C94.9107 139.084 94.8814 138.988 94.8814 138.891H95.3345C95.3367 138.956 95.3533 139.009 95.3843 139.049C95.4164 139.089 95.4568 139.117 95.5054 139.135C95.5552 139.153 95.6089 139.162 95.6664 139.162C95.7284 139.162 95.7798 139.153 95.8208 139.137C95.8617 139.119 95.8927 139.096 95.9137 139.067C95.9358 139.037 95.9469 139.003 95.9469 138.964ZM97.5824 139.493C97.443 139.493 97.318 139.471 97.2074 139.427C97.0967 139.382 97.0027 139.319 96.9252 139.24C96.8489 139.16 96.7902 139.068 96.7493 138.962C96.7084 138.856 96.6879 138.743 96.6879 138.624V138.557C96.6879 138.421 96.7073 138.297 96.746 138.184C96.7847 138.071 96.84 137.973 96.9119 137.89C96.985 137.807 97.0735 137.744 97.1775 137.699C97.2815 137.654 97.3988 137.631 97.5293 137.631C97.6566 137.631 97.7694 137.652 97.8679 137.694C97.9664 137.736 98.0488 137.796 98.1152 137.874C98.1827 137.951 98.2336 138.044 98.2679 138.153C98.3022 138.26 98.3193 138.379 98.3193 138.511V138.71H96.892V138.391H97.8496V138.355C97.8496 138.289 97.8375 138.229 97.8131 138.177C97.7899 138.124 97.7545 138.082 97.7069 138.051C97.6593 138.02 97.5985 138.005 97.5244 138.005C97.4613 138.005 97.4071 138.019 97.3617 138.046C97.3163 138.074 97.2793 138.113 97.2505 138.162C97.2229 138.212 97.2018 138.271 97.1874 138.338C97.1742 138.405 97.1675 138.478 97.1675 138.557V138.624C97.1675 138.696 97.1775 138.762 97.1974 138.823C97.2184 138.884 97.2477 138.936 97.2854 138.981C97.3241 139.025 97.3706 139.059 97.4248 139.084C97.4801 139.108 97.5426 139.12 97.6123 139.12C97.6986 139.12 97.7788 139.103 97.853 139.07C97.9282 139.036 97.9929 138.985 98.0471 138.916L98.2795 139.168C98.2419 139.222 98.1904 139.274 98.1251 139.324C98.061 139.374 97.9835 139.415 97.8928 139.447C97.8021 139.478 97.6986 139.493 97.5824 139.493Z" fill="white"/>
<rect x="68.8572" y="142.727" width="166.335" height="22.0931" rx="0.743517" fill="white" stroke="#7B858F" stroke-width="0.212433"/>
<rect x="68.3262" y="97.5848" width="29.1034" height="3.39893" rx="1.69947" fill="#889AAA"/>
<rect x="68.6448" y="142.514" width="166.335" height="22.0931" rx="0.531084" fill="white"/>
<rect x="68.6448" y="142.514" width="166.335" height="22.0931" rx="0.531084" fill="white"/>
<rect x="68.6448" y="142.514" width="166.335" height="22.0931" rx="0.531084" fill="white"/>
<rect x="68.6448" y="142.514" width="166.335" height="22.0931" rx="0.531084" fill="white"/>
<rect x="68.6448" y="142.514" width="166.335" height="22.0931" rx="0.531084" stroke="#C3CCD4" stroke-width="0.6373"/>
<rect x="68.6448" y="123.183" width="166.335" height="7.86004" rx="0.531084" fill="white"/>
<rect x="68.6448" y="123.183" width="166.335" height="7.86004" rx="0.531084" fill="white"/>
<rect x="68.6448" y="123.183" width="166.335" height="7.86004" rx="0.531084" fill="white"/>
<rect x="68.6448" y="123.183" width="166.335" height="7.86004" rx="0.531084" fill="white"/>
<rect x="68.6448" y="123.183" width="166.335" height="7.86004" rx="0.531084" stroke="#A6B3BF" stroke-width="0.6373"/>
<rect x="68.6448" y="104.064" width="76.0512" height="8.07247" rx="0.531084" fill="white"/>
<rect x="68.6448" y="104.064" width="76.0512" height="8.07247" rx="0.531084" fill="white"/>
<rect x="68.6448" y="104.064" width="76.0512" height="8.07247" rx="0.531084" fill="white"/>
<rect x="68.6448" y="104.064" width="76.0512" height="8.07247" rx="0.531084" fill="white"/>
<rect x="68.6448" y="104.064" width="76.0512" height="8.07247" rx="0.531084" stroke="#889AAA" stroke-width="0.6373"/>
<rect opacity="0.75" x="68.3262" y="116.916" width="27.6163" height="3.39893" rx="1.69947" fill="#889AAA"/>
<rect opacity="0.5" x="68.3262" y="136.673" width="29.1034" height="3.39893" rx="1.69947" fill="#889AAA"/>
<g filter="url(#filter4_d_25_652)">
<g filter="url(#filter5_d_25_652)">
<rect x="150.132" y="104.239" width="63.9053" height="34.9957" rx="0.599026" fill="#5441DA"/>
</g>
<path fill-rule="evenodd" clip-rule="evenodd" d="M150.325 109.694V106.295L148.626 107.994L150.325 109.694Z" fill="#5441DA"/>
<rect x="153.936" y="108.043" width="20.541" height="4.56466" rx="2.28233" fill="#B2ACDA"/>
<rect x="153.936" y="115.65" width="54.0152" height="3.04311" rx="1.52155" fill="#B2ACDA"/>
<rect x="153.936" y="120.976" width="54.0152" height="3.04311" rx="1.52155" fill="#B2ACDA"/>
</g>
<path fill-rule="evenodd" clip-rule="evenodd" d="M209.885 108.444L209.007 109.321C208.968 109.361 208.969 109.423 209.008 109.462L209.158 109.613C209.197 109.652 209.26 109.652 209.299 109.613L210.176 108.736L211.053 109.613C211.093 109.652 211.155 109.652 211.194 109.613L211.345 109.462C211.384 109.423 211.384 109.36 211.345 109.321L210.468 108.444L211.345 107.567C211.384 107.528 211.384 107.465 211.345 107.426L211.194 107.276C211.155 107.236 211.092 107.237 211.053 107.275L210.176 108.153L209.299 107.275C209.259 107.236 209.197 107.237 209.158 107.276L209.008 107.426C208.968 107.465 208.968 107.528 209.007 107.567L209.885 108.444Z" fill="#86959E"/>
<mask id="mask0_25_652" style="mask-type:luminance" maskUnits="userSpaceOnUse" x="208" y="107" width="4" height="3">
<path fill-rule="evenodd" clip-rule="evenodd" d="M209.885 108.444L209.007 109.321C208.968 109.361 208.969 109.423 209.008 109.462L209.158 109.613C209.197 109.652 209.26 109.652 209.299 109.613L210.176 108.736L211.053 109.613C211.093 109.652 211.155 109.652 211.194 109.613L211.345 109.462C211.384 109.423 211.384 109.36 211.345 109.321L210.468 108.444L211.345 107.567C211.384 107.528 211.384 107.465 211.345 107.426L211.194 107.276C211.155 107.236 211.092 107.237 211.053 107.275L210.176 108.153L209.299 107.275C209.259 107.236 209.197 107.237 209.158 107.276L209.008 107.426C208.968 107.465 208.968 107.528 209.007 107.567L209.885 108.444Z" fill="white"/>
</mask>
<g mask="url(#mask0_25_652)">
<rect x="207.78" y="106.047" width="4.79221" height="4.76468" fill="white"/>
</g>
<rect x="182.822" y="128.783" width="12.3799" height="5.99026" rx="2.99513" stroke="#B7B3D1" stroke-width="0.399351"/>
<rect x="196.999" y="128.584" width="12.3799" height="6.38961" rx="3.1948" fill="#B2ACDA"/>
</g>
<rect x="32" y="63.5956" width="240.687" height="2.5492" fill="#DFE2E6"/>
<rect x="32" y="240.765" width="174.62" height="2.54921" transform="rotate(-90 32 240.765)" fill="#DFE2E6"/>
<rect x="270.138" y="240.765" width="174.62" height="2.54921" transform="rotate(-90 270.138 240.765)" fill="#DFE2E6"/>
<line x1="34.3369" y1="66.2511" x2="270.138" y2="66.2511" stroke="#CED3D9" stroke-width="0.212433"/>
<line x1="34.4431" y1="66.1449" x2="34.4431" y2="228.869" stroke="#CED3D9" stroke-width="0.212433"/>
<line x1="270.032" y1="66.1449" x2="270.032" y2="228.869" stroke="#CED3D9" stroke-width="0.212433"/>
</g>
<defs>
<filter id="filter0_d_25_652" x="28.6011" y="48.3005" width="261.081" height="21.2433" filterUnits="userSpaceOnUse" color-interpolation-filters="sRGB">
<feFlood flood-opacity="0" result="BackgroundImageFix"/>
<feColorMatrix in="SourceAlpha" type="matrix" values="0 0 0 0 0 0 0 0 0 0 0 0 0 0 0 0 0 0 127 0" result="hardAlpha"/>
<feOffset dy="1.69947"/>
<feGaussianBlur stdDeviation="1.69947"/>
<feColorMatrix type="matrix" values="0 0 0 0 0 0 0 0 0 0 0 0 0 0 0 0 0 0 0.12 0"/>
<feBlend mode="normal" in2="BackgroundImageFix" result="effect1_dropShadow_25_652"/>
<feBlend mode="normal" in="SourceGraphic" in2="effect1_dropShadow_25_652" result="shape"/>
</filter>
<filter id="filter1_i_25_652" x="32" y="50" width="254.283" height="13.5957" filterUnits="userSpaceOnUse" color-interpolation-filters="sRGB">
<feFlood flood-opacity="0" result="BackgroundImageFix"/>
<feBlend mode="normal" in="SourceGraphic" in2="BackgroundImageFix" result="shape"/>
<feColorMatrix in="SourceAlpha" type="matrix" values="0 0 0 0 0 0 0 0 0 0 0 0 0 0 0 0 0 0 127 0" result="hardAlpha"/>
<feOffset dy="-0.198729"/>
<feComposite in2="hardAlpha" operator="arithmetic" k2="-1" k3="1"/>
<feColorMatrix type="matrix" values="0 0 0 0 0.909804 0 0 0 0 0.921569 0 0 0 0 0.929412 0 0 0 1 0"/>
<feBlend mode="normal" in2="shape" result="effect1_innerShadow_25_652"/>
</filter>
<filter id="filter2_d_25_652" x="33.6996" y="66.3574" width="237.075" height="163.999" filterUnits="userSpaceOnUse" color-interpolation-filters="sRGB">
<feFlood flood-opacity="0" result="BackgroundImageFix"/>
<feColorMatrix in="SourceAlpha" type="matrix" values="0 0 0 0 0 0 0 0 0 0 0 0 0 0 0 0 0 0 127 0" result="hardAlpha"/>
<feOffset dy="0.849734"/>
<feGaussianBlur stdDeviation="0.424867"/>
<feComposite in2="hardAlpha" operator="out"/>
<feColorMatrix type="matrix" values="0 0 0 0 0 0 0 0 0 0 0 0 0 0 0 0 0 0 0.25 0"/>
<feBlend mode="normal" in2="BackgroundImageFix" result="effect1_dropShadow_25_652"/>
<feBlend mode="normal" in="SourceGraphic" in2="effect1_dropShadow_25_652" result="shape"/>
</filter>
<filter id="filter3_d_25_652" x="55.1553" y="82.0774" width="194.164" height="135.745" filterUnits="userSpaceOnUse" color-interpolation-filters="sRGB">
<feFlood flood-opacity="0" result="BackgroundImageFix"/>
<feColorMatrix in="SourceAlpha" type="matrix" values="0 0 0 0 0 0 0 0 0 0 0 0 0 0 0 0 0 0 127 0" result="hardAlpha"/>
<feOffset dy="1.69947"/>
<feGaussianBlur stdDeviation="1.69947"/>
<feColorMatrix type="matrix" values="0 0 0 0 0 0 0 0 0 0 0 0 0 0 0 0 0 0 0.12 0"/>
<feBlend mode="normal" in2="BackgroundImageFix" result="effect1_dropShadow_25_652"/>
<feBlend mode="normal" in="SourceGraphic" in2="effect1_dropShadow_25_652" result="shape"/>
</filter>
<filter id="filter4_d_25_652" x="142.54" y="95.1094" width="77.7164" height="47.1682" filterUnits="userSpaceOnUse" color-interpolation-filters="sRGB">
<feFlood flood-opacity="0" result="BackgroundImageFix"/>
<feColorMatrix in="SourceAlpha" type="matrix" values="0 0 0 0 0 0 0 0 0 0 0 0 0 0 0 0 0 0 127 0" result="hardAlpha"/>
<feOffset dy="-3.04311"/>
<feGaussianBlur stdDeviation="3.04311"/>
<feColorMatrix type="matrix" values="0 0 0 0 0 0 0 0 0 0 0 0 0 0 0 0 0 0 0.12 0"/>
<feBlend mode="normal" in2="BackgroundImageFix" result="effect1_dropShadow_25_652"/>
<feBlend mode="normal" in="SourceGraphic" in2="effect1_dropShadow_25_652" result="shape"/>
</filter>
<filter id="filter5_d_25_652" x="146.937" y="102.641" width="70.2949" height="41.3853" filterUnits="userSpaceOnUse" color-interpolation-filters="sRGB">
<feFlood flood-opacity="0" result="BackgroundImageFix"/>
<feColorMatrix in="SourceAlpha" type="matrix" values="0 0 0 0 0 0 0 0 0 0 0 0 0 0 0 0 0 0 127 0" result="hardAlpha"/>
<feOffset dy="1.5974"/>
<feGaussianBlur stdDeviation="1.5974"/>
<feColorMatrix type="matrix" values="0 0 0 0 0 0 0 0 0 0 0 0 0 0 0 0 0 0 0.12 0"/>
<feBlend mode="normal" in2="BackgroundImageFix" result="effect1_dropShadow_25_652"/>
<feBlend mode="normal" in="SourceGraphic" in2="effect1_dropShadow_25_652" result="shape"/>
</filter>
<linearGradient id="paint0_linear_25_652" x1="0.506856" y1="1.34242e-05" x2="304.849" y2="185.607" gradientUnits="userSpaceOnUse">
<stop stop-color="#403681"/>
<stop offset="1" stop-color="#0C063A"/>
</linearGradient>
<clipPath id="clip0_25_652">
<path d="M32 52.7592C32 51.2353 33.2353 50 34.7592 50H283.241C284.765 50 286 51.2353 286 52.7592V176H32V52.7592Z" fill="white"/>
</clipPath>
<clipPath id="clip1_25_652">
<rect width="0.212433" height="8.07247" fill="white" transform="translate(257.18 53.1864)"/>
</clipPath>
<clipPath id="clip2_25_652">
<rect width="235.376" height="162.299" fill="white" transform="translate(34.5493 66.3574)"/>
</clipPath>
</defs>
</svg>
